<svg width="28" height="28" viewBox="0 0 28 28" fill="none" xmlns="http://www.w3.org/2000/svg">
<mask id="mask0_2458_61584" style="mask-type:luminance" maskUnits="userSpaceOnUse" x="0" y="0" width="28" height="28">
<path d="M28 14C28 6.26801 21.732 0 14 0C6.26801 0 0 6.26801 0 14C0 21.732 6.26801 28 14 28C21.732 28 28 21.732 28 14Z" fill="white"/>
</mask>
<g mask="url(#mask0_2458_61584)">
<path d="M28.0002 14C28.0002 6.26801 21.7322 0 14.0002 0C6.26826 0 0.000244141 6.26801 0.000244141 14C0.000244141 21.732 6.26826 28 14.0002 28C21.7322 28 28.0002 21.732 28.0002 14Z" fill="white"/>
<path fill-rule="evenodd" clip-rule="evenodd" d="M-5.59985 0H7.46681V28H-5.59985V0ZM20.5335 0H33.6001V28H20.5335V0Z" fill="#0A6A30"/>
<path d="M28.0002 14C28.0002 6.26801 21.7322 0 14.0002 0C6.26826 0 0.000244141 6.26801 0.000244141 14C0.000244141 21.732 6.26826 28 14.0002 28C21.7322 28 28.0002 21.732 28.0002 14Z" fill="white"/>
<path fill-rule="evenodd" clip-rule="evenodd" d="M-5.59985 0H7.46681V28H-5.59985V0ZM20.5335 0H33.6001V28H20.5335V0Z" fill="#0A6A30"/>
</g>
</svg>
