<svg width="20" height="21" viewBox="0 0 20 21" fill="none" xmlns="http://www.w3.org/2000/svg">
<path d="M5.39227 9.74746L3.39228 9.75032L3.4023 16.7503L5.40229 16.7474L5.39227 9.74746ZM11.3923 9.73887L9.39227 9.74173L9.40229 16.7417L11.4023 16.7389L11.3923 9.73887ZM19.9051 18.7267L0.905162 18.7539L0.908025 20.7539L19.908 20.7267L19.9051 18.7267ZM17.3923 9.73028L15.3923 9.73314L15.4023 16.7331L17.4023 16.7303L17.3923 9.73028ZM10.3826 3.0003L15.5965 5.73284L5.17655 5.74776L10.3826 3.0003ZM10.3794 0.740307L0.886552 5.7539L0.889415 7.7539L19.8894 7.7267L19.8865 5.7267L10.3794 0.740307Z" fill="#0B0B0B"/>
</svg>
