<svg width="72" height="72" viewBox="0 0 72 72" fill="none" xmlns="http://www.w3.org/2000/svg">
<path d="M38.9994 6V12C52.1694 13.62 61.4994 25.59 59.8794 38.76C59.2172 44.067 56.8044 49.0016 53.0227 52.7833C49.241 56.565 44.3064 58.9778 38.9994 59.64V65.64C55.4994 63.84 67.3494 49.02 65.5494 32.55C63.9894 18.57 52.9794 7.5 38.9994 6ZM32.9994 6C27.1194 6.54 21.5694 8.85 17.0094 12.6L21.2994 17.22C24.6594 14.52 28.7094 12.78 32.9994 12.18V6.18M12.7794 17.01C9.01645 21.5549 6.70651 27.1259 6.14941 33H12.1494C12.7194 28.74 14.3994 24.69 17.0694 21.3L12.7794 17.01ZM6.17941 39C6.77941 44.88 9.08941 50.43 12.8094 54.99L17.0694 50.7C14.4202 47.3088 12.7313 43.2678 12.1794 39H6.17941ZM21.1794 55.11L17.0094 59.22C21.5538 63.0081 27.1172 65.3671 32.9994 66V60C28.7316 59.4481 24.6906 57.7592 21.2994 55.11H21.1794ZM38.9994 39V21H32.9994V39H38.9994ZM38.9994 51V45H32.9994V51H38.9994Z" fill="#212121"/>
</svg>
