<svg width="35" height="26" viewBox="0 0 35 26" fill="none" xmlns="http://www.w3.org/2000/svg">
<path d="M9.15674 25.5C6.78174 25.5 4.7557 24.6823 3.07861 23.0469C1.40153 21.401 0.562988 19.3958 0.562988 17.0313C0.562988 15 1.17236 13.1875 2.39111 11.5938C3.62028 10 5.22445 8.98438 7.20361 8.54688C7.85986 6.15104 9.16195 4.21354 11.1099 2.73438C13.0682 1.24479 15.2817 0.5 17.7505 0.5C20.8026 0.5 23.3859 1.5625 25.5005 3.6875C27.6255 5.80208 28.688 8.38542 28.688 11.4375C30.4901 11.6458 31.9797 12.4271 33.1567 13.7813C34.3442 15.1146 34.938 16.6771 34.938 18.4688C34.938 20.4271 34.2557 22.0885 32.8911 23.4531C31.5265 24.8177 29.8651 25.5 27.9067 25.5H19.313C18.4588 25.5 17.7244 25.1927 17.1099 24.5781C16.4953 23.974 16.188 23.2396 16.188 22.375V14.3281L13.688 16.75L11.5005 14.5625L17.7505 8.3125L24.0005 14.5625L21.813 16.75L19.313 14.3281V22.375H27.9067C29.0005 22.375 29.9224 21.9948 30.6724 21.2344C31.4328 20.4844 31.813 19.5625 31.813 18.4688C31.813 17.375 31.4328 16.4531 30.6724 15.7031C29.9224 14.9427 29.0005 14.5625 27.9067 14.5625H25.563V11.4375C25.563 9.28125 24.8026 7.4375 23.2817 5.90625C21.7609 4.38542 19.9172 3.625 17.7505 3.625C15.5942 3.625 13.7505 4.38542 12.2192 5.90625C10.6984 7.4375 9.93799 9.28125 9.93799 11.4375H9.15674C7.64632 11.4375 6.35986 11.974 5.29736 13.0469C4.22445 14.1094 3.68799 15.3958 3.68799 16.9063C3.68799 18.4167 4.22445 19.7188 5.29736 20.8125C6.35986 21.8542 7.64632 22.375 9.15674 22.375H13.063V25.5" fill="#747A80"/>
</svg>
