<svg width="20" height="19" viewBox="0 0 20 19" fill="none" xmlns="http://www.w3.org/2000/svg">
<path d="M19.2917 6.46642L18.1107 6.27379C18.2712 5.28963 18.0631 4.39677 17.4863 3.59518C16.9096 2.7936 16.1294 2.31285 15.1456 2.15292L15.3383 0.97194C16.6505 1.18598 17.6909 1.82719 18.4597 2.89556C19.2284 3.96393 19.5057 5.15422 19.2917 6.46642ZM4.63971 17.0088C3.32751 16.7948 2.28705 16.1536 1.51833 15.0852C0.749613 14.0168 0.472275 12.8265 0.686314 11.5143L1.8673 11.707C1.70677 12.6911 1.91488 13.584 2.49164 14.3856C3.0684 15.1872 3.84863 15.6679 4.83235 15.8278L4.63971 17.0088ZM15.6555 16.8658C14.9229 17.3929 14.1307 17.7487 13.2789 17.933C12.4271 18.1174 11.5847 18.1417 10.7517 18.0058C9.91819 17.8698 9.1269 17.5791 8.37782 17.1336C7.62875 16.6881 6.99065 16.0991 6.46353 15.3665L3.43259 11.154C3.27885 10.9403 3.21844 10.6912 3.25138 10.4067C3.28432 10.1222 3.41522 9.89783 3.64407 9.73363C3.85774 9.57989 4.10577 9.52605 4.38816 9.57211C4.67055 9.61817 4.88835 9.74799 5.04157 9.96158L7.72659 13.6933C8.23211 13.2369 8.84565 13.0069 9.5672 13.0034C10.2888 12.9998 10.8974 13.3348 11.3932 14.0084L12.0342 13.5472C11.6234 12.9279 11.0105 12.5146 10.1956 12.3073C9.38074 12.1 8.62315 12.2022 7.92285 12.6139L2.89874 5.63132C2.73402 5.40238 2.67361 5.15328 2.71753 4.88402C2.76145 4.61475 2.89784 4.39802 3.12669 4.23382C3.34037 4.08008 3.58291 4.0186 3.85431 4.0494C4.12572 4.0802 4.34901 4.21766 4.52419 4.46177L8.13167 9.47549L8.76948 9.03394L4.22307 2.71529C4.06933 2.50161 4.01549 2.25358 4.06155 1.97119C4.10761 1.68881 4.23744 1.471 4.45102 1.31779C4.6647 1.16404 4.91247 1.11016 5.19433 1.15613C5.47619 1.20211 5.69426 1.33198 5.84852 1.54574L10.3949 7.8644L11.0392 7.38348L7.20108 2.04925C7.03635 1.82032 6.97595 1.57122 7.01987 1.30195C7.06379 1.03269 7.20018 0.815955 7.42903 0.651755C7.6427 0.498012 7.89047 0.444127 8.17233 0.490103C8.45419 0.536079 8.67226 0.665947 8.82653 0.879707L13.1226 6.87464L13.7833 6.41662L10.8677 2.36444C10.692 2.12024 10.6327 1.86458 10.6897 1.59745C10.7468 1.33033 10.8821 1.12016 11.0957 0.966941C11.3093 0.813198 11.5519 0.751726 11.8233 0.782524C12.0947 0.813322 12.318 0.950778 12.4932 1.19489L17.1549 7.67381C17.682 8.4064 18.0377 9.19861 18.2221 10.0504C18.4065 10.9022 18.4307 11.7446 18.2948 12.5776C18.1589 13.4111 17.8682 14.2024 17.4227 14.9515C16.9772 15.7006 16.3881 16.3387 15.6555 16.8658Z" fill="#747A80"/>
</svg>
