<svg width="147" height="137" viewBox="0 0 147 137" fill="none" xmlns="http://www.w3.org/2000/svg">
<path d="M3.8902 134.172H157.966" stroke="#263238" stroke-width="0.840038" stroke-miterlimit="10"/>
<g opacity="0.15">
<path d="M15.3154 93.5782C17.227 93.6393 21.1689 91.9654 21.1723 91.9654C21.1757 91.9654 19.2777 89.7008 19.1351 89.5887C17.536 88.1118 13.5736 86.1934 11.4482 87.392C9.9169 88.2578 9.66225 90.2338 10.6333 91.6123C11.6044 92.9908 13.6891 93.5103 15.3154 93.5782Z" fill="black"/>
<path d="M21.2775 104.539C23.0634 104.114 26.2041 101.67 26.4519 101.483C27.8463 103.279 29.3582 104.98 30.9778 106.576C31.9183 107.513 32.8928 108.426 33.8808 109.33C33.3681 108.99 32.9064 108.681 32.8385 108.651C30.9031 107.649 26.5775 106.844 24.8459 108.562C23.5965 109.798 23.8715 111.774 25.1855 112.847C26.4994 113.92 28.6385 113.9 30.2207 113.526C31.8029 113.153 34.5429 111.112 35.2559 110.566L36.4035 111.584C38.2472 113.221 40.0908 114.847 41.853 116.497C42.4743 117.081 43.0651 117.675 43.6593 118.269C43.2043 117.964 42.8173 117.709 42.7527 117.675C40.8208 116.657 36.4952 115.869 34.7602 117.587C33.5107 118.823 33.7892 120.799 35.0997 121.872C36.4103 122.945 38.5494 122.924 40.1316 122.551C41.7138 122.177 44.2059 120.334 45.0412 119.689C45.632 120.313 46.2227 120.942 46.7626 121.573C47.1259 122.014 47.5028 122.415 47.8389 122.877L48.8575 124.218C49.4754 125.094 50.1206 125.994 50.7011 126.863C51.1086 127.464 51.4889 128.048 51.8691 128.632C51.258 128.045 50.0391 126.934 49.9236 126.839C48.1649 125.556 44.0124 124.123 42.0363 125.542C40.6171 126.561 40.5899 128.571 41.7138 129.827C42.8376 131.083 44.9631 131.392 46.586 131.256C48.372 131.11 51.7163 129.263 52.134 129.029C52.7655 129.997 53.3699 130.944 53.9233 131.851C54.4258 132.659 54.8876 133.429 55.3255 134.17L56.7448 133.606C56.2491 132.801 55.7262 131.963 55.1456 131.077C54.5107 130.092 53.8112 129.039 53.0813 127.987C53.9738 127.14 54.8151 126.241 55.6006 125.294C57.2609 126.089 60.8191 126.377 61.2775 126.411C61.2775 127.566 61.2504 128.69 61.2164 129.752C61.1926 130.482 61.1655 131.182 61.1349 131.857L62.639 131.26C62.639 130.778 62.656 130.289 62.6594 129.78C62.6594 128.608 62.6594 127.352 62.6594 126.065C63.1212 125.984 66.8933 125.305 68.3737 124.289C69.7148 123.369 71.168 121.824 71.2495 120.103C71.331 118.382 70.0476 116.888 68.2922 116.986C65.8544 117.118 63.5388 120.863 62.9955 122.972C62.9616 123.098 62.7579 124.486 62.656 125.349C62.656 124.822 62.656 124.313 62.6187 123.77C62.5915 122.7 62.5304 121.631 62.4693 120.483C62.4183 119.926 62.3708 119.37 62.3199 118.803C62.2689 118.236 62.1705 117.652 62.0992 117.071C61.9022 115.713 61.6374 114.378 61.342 113.02C62.2791 112.993 65.6099 112.847 67.0801 112.138C68.5502 111.428 70.2173 110.124 70.5569 108.433C70.8964 106.742 69.8574 105.075 68.1055 104.906C65.6778 104.668 62.8292 108.022 61.9634 110.022C61.909 110.145 61.4507 111.649 61.213 112.48C61.0297 111.666 60.8497 110.854 60.6358 110.036C60.0179 107.68 59.3218 105.31 58.636 102.946C58.4255 102.22 58.2251 101.497 58.0214 100.773C58.3609 100.773 62.3165 100.675 63.9666 99.8805C65.4334 99.1743 67.1038 97.8671 67.4434 96.1796C67.7829 94.4922 66.7439 92.8217 64.992 92.6519C62.5643 92.4142 59.7157 95.7654 58.8499 97.7652C58.7854 97.9146 58.1267 100.081 57.9841 100.641C57.5359 99.0453 57.1047 97.4495 56.7448 95.8605C56.2451 93.7177 55.8855 91.5446 55.6685 89.3551C55.8213 89.3551 59.9567 89.2804 61.6476 88.4655C63.111 87.7593 64.7849 86.4521 65.121 84.7612C65.4571 83.0704 64.4216 81.4033 62.673 81.2335C60.2453 80.9958 57.3967 84.3504 56.5309 86.3468C56.463 86.5064 55.7534 88.8356 55.6549 89.2668C55.6549 89.1412 55.6175 89.0088 55.6074 88.8831C55.4505 86.6816 55.4892 84.4705 55.7228 82.2759C55.8382 81.0603 56.0148 79.8992 56.2117 78.7889C56.9825 78.8534 60.5136 79.1115 62.1128 78.5478C63.6474 78.0046 65.4537 76.8909 65.9732 75.2476C66.4927 73.6043 65.6337 71.8319 63.936 71.472C61.5593 70.9695 58.3508 73.9879 57.2711 75.8859C57.2099 75.9878 56.7312 77.098 56.3917 77.9231C56.4867 77.4206 56.5784 76.9045 56.6803 76.419C57.0605 74.6127 57.5189 72.9829 57.9365 71.5433C58.181 70.7251 58.4187 69.9917 58.6462 69.3092C59.4373 68.9697 62.6051 67.6116 63.7391 66.3859C64.8731 65.1602 65.9393 63.3776 65.6473 61.68C65.3553 59.9823 63.7798 58.8008 62.089 59.2693C59.7394 59.9246 58.2896 64.0805 58.2048 66.2568C58.2048 66.4436 58.4153 69.4009 58.456 69.3839L58.5069 69.3635C58.2727 70.0188 58.0282 70.7217 57.7804 71.4958C57.3288 72.932 56.8331 74.5516 56.4222 76.3579C55.9477 78.2976 55.5872 80.2634 55.3425 82.2453C55.058 84.4628 54.9705 86.7011 55.0811 88.9341C55.0811 88.9578 55.0811 88.985 55.0811 89.0121C54.8298 88.3331 54.0625 86.4996 53.9844 86.3638C52.9251 84.459 49.7606 81.4033 47.367 81.8786C45.6421 82.2182 44.7831 84.0211 45.2789 85.6338C45.7746 87.2466 47.5741 88.418 49.102 88.9748C50.8268 89.6029 54.7925 89.2974 55.1082 89.2736C55.2789 91.5423 55.5999 93.7972 56.0691 96.0234C56.3373 97.3238 56.6463 98.6242 56.9723 99.9212C56.7346 99.3508 56.5173 98.8415 56.48 98.7736C55.4206 96.8689 52.2562 93.8165 49.8625 94.2918C48.1377 94.6314 47.2787 96.4343 47.7744 98.0267C48.2701 99.6191 50.0696 100.811 51.5975 101.368C53.1254 101.924 56.5377 101.741 57.4306 101.68C57.5631 102.176 57.6853 102.675 57.8177 103.171C58.4526 105.547 59.0943 107.924 59.6546 110.277C59.8515 111.105 60.0179 111.927 60.1842 112.749C59.9737 112.243 59.7904 111.818 59.7564 111.757C58.6971 109.853 55.5293 106.797 53.139 107.272C51.4142 107.612 50.5552 109.415 51.0475 111.027C51.5398 112.64 53.3461 113.808 54.874 114.368C56.4019 114.928 59.4814 114.759 60.5475 114.687C60.6935 115.536 60.8395 116.385 60.9414 117.214C60.9991 117.777 61.0942 118.32 61.1213 118.891C61.1485 119.461 61.196 120.018 61.2334 120.588C61.2673 121.658 61.3047 122.765 61.3115 123.811C61.3115 124.537 61.3115 125.23 61.3115 125.929C61.1247 125.104 60.7241 123.495 60.6765 123.362C59.9433 121.592 58.7685 120.04 57.2643 118.853C57.1893 118.652 57.0972 118.458 56.9892 118.273C56.1268 116.826 54.2153 116.256 52.8028 117.305C50.8471 118.758 50.9864 123.159 51.6892 125.22C51.7299 125.342 52.3275 126.612 52.7078 127.406C52.409 126.975 52.1238 126.551 51.808 126.109C51.1935 125.233 50.5518 124.374 49.8693 123.451L48.8168 122.133C48.4772 121.685 48.0596 121.254 47.6793 120.809C46.7728 119.791 45.8085 118.816 44.8137 117.852C45.581 117.309 48.2735 115.349 49.1121 113.947C49.9508 112.545 50.6163 110.535 49.9678 108.939C49.3193 107.343 47.5299 106.525 45.9783 107.347C43.8223 108.491 43.296 112.857 43.6763 115.003C43.7 115.136 44.1448 116.646 44.4063 117.468C43.8053 116.894 43.2043 116.314 42.5762 115.75C40.7631 114.124 38.8753 112.531 36.9977 110.939C36.4239 110.45 35.8569 109.954 35.3001 109.465C35.5751 109.275 38.8312 107.014 39.7683 105.442C40.6001 104.043 41.2724 102.047 40.6239 100.437C39.9754 98.828 38.1861 98.0199 36.6344 98.8449C34.4784 99.9858 33.9521 104.356 34.3324 106.498C34.3596 106.661 35.0115 108.831 35.1982 109.374C33.9419 108.291 32.7027 107.201 31.5245 106.074C29.9266 104.562 28.4284 102.948 27.0393 101.242C27.1683 101.154 30.5738 98.811 31.5347 97.1982C32.3665 95.8027 33.0388 93.8029 32.3903 92.1936C31.7418 90.5842 29.9525 89.7795 28.4008 90.6012C26.2448 91.742 25.7185 96.1117 26.0988 98.2576C26.1294 98.4239 26.822 100.76 26.9782 101.174C26.9001 101.072 26.805 100.981 26.7269 100.879C25.3808 99.1296 24.1934 97.2638 23.1788 95.3036C22.605 94.2273 22.1161 93.168 21.6611 92.1256C22.3402 91.7556 25.4265 90.0239 26.4519 88.6692C27.4331 87.3722 28.3227 85.4471 27.8542 83.7902C27.3856 82.1333 25.6948 81.1215 24.0616 81.753C21.7936 82.6528 20.7919 86.9376 20.9345 89.1106C20.9345 89.2294 21.1518 90.4212 21.3182 91.287C21.1213 90.8151 20.9108 90.3295 20.7308 89.8712C20.0518 88.1565 19.5323 86.5438 19.0875 85.1177C18.8396 84.2995 18.6325 83.5559 18.4492 82.8599C18.9245 82.1468 20.8259 79.2541 21.0873 77.6107C21.3488 75.9674 21.2639 73.8759 20.0687 72.6332C18.8736 71.3905 16.9247 71.2751 15.7737 72.5857C14.1745 74.4293 15.2576 78.6972 16.3848 80.5578C16.4833 80.7174 18.2998 83.0602 18.3236 83.0228L18.3507 82.9821C18.5171 83.6612 18.6902 84.3776 18.9211 85.1619C19.3388 86.6049 19.8209 88.2346 20.466 89.9696C21.1395 91.8486 21.9229 93.6864 22.8121 95.4734C23.796 97.4811 24.9573 99.3969 26.2821 101.198C26.2821 101.218 26.3195 101.239 26.3331 101.259C25.7559 100.841 24.0956 99.7277 23.9564 99.6564C22.0244 98.6378 17.6988 97.8501 15.9638 99.5681C14.7144 100.804 14.9928 102.777 16.3034 103.85C17.6139 104.923 19.6953 104.919 21.2775 104.539Z" fill="black"/>
<path d="M55.9028 78.4153C55.9469 78.4153 55.5633 75.4818 55.5293 75.3019C55.0098 73.1866 52.7655 69.4008 50.3311 69.2277C48.5791 69.1054 47.2753 70.6129 47.3263 72.2834C47.3772 73.9539 48.8032 75.5735 50.1308 76.5174C51.6892 77.6378 55.8994 78.4153 55.9028 78.4153Z" fill="black"/>
</g>
<g opacity="0.15">
<path d="M151.796 81.946C150.034 82.6861 145.756 82.5231 145.753 82.5231C145.749 82.5231 146.714 79.7322 146.799 79.5658C147.77 77.6135 150.788 74.4152 153.202 74.7785C154.941 75.0399 155.881 76.7987 155.463 78.4318C155.046 80.065 153.297 81.3178 151.796 81.946Z" fill="black"/>
<path d="M102.768 84.5457C104.466 84.5049 107.671 83.0076 108.371 82.6715C108.951 83.6459 109.528 84.6645 110.068 85.7578C111.067 87.7223 111.889 89.7722 112.523 91.8829C112.56 92.0051 112.581 92.1342 112.615 92.2598C112.37 91.8897 110.88 89.9646 110.761 89.8423C109.24 88.2805 105.386 86.1584 103.199 87.2449C101.627 88.0258 101.268 89.9883 102.181 91.4144C103.094 92.8404 105.125 93.4991 106.744 93.6383C108.612 93.7979 112.516 92.399 112.649 92.3447C113.224 94.4643 113.661 96.6193 113.956 98.7957C114.183 100.409 114.346 102.052 114.496 103.702C114.156 103.23 112.778 101.441 112.666 101.325C111.144 99.7634 107.291 97.6413 105.104 98.7278C103.529 99.5088 103.172 101.471 104.069 102.897C104.965 104.323 107.012 104.982 108.635 105.121C110.459 105.277 114.193 103.953 114.506 103.841C114.574 104.588 114.645 105.338 114.706 106.089C114.906 108.544 115.097 111.005 115.361 113.429C115.45 114.268 115.572 115.09 115.701 115.918C115.185 115.239 114.221 113.983 114.126 113.881C112.604 112.323 108.751 110.201 106.564 111.284C104.992 112.065 104.632 114.027 105.546 115.456C106.459 116.886 108.489 117.541 110.109 117.68C111.728 117.82 114.903 116.774 115.789 116.465C115.993 117.823 116.227 119.181 116.519 120.519C116.658 121.089 116.764 121.68 116.93 122.217C117.096 122.753 117.236 123.303 117.388 123.839C117.728 124.936 118.067 125.955 118.407 126.967C118.584 127.479 118.747 127.958 118.937 128.454C118.519 127.673 117.833 126.45 117.759 126.345C116.492 124.573 113.005 121.891 110.679 122.631C109.005 123.167 108.354 125.052 109.026 126.596C109.698 128.141 111.62 129.106 113.202 129.489C114.944 129.91 118.713 129.204 119.171 129.116C119.609 130.328 120.047 131.493 120.478 132.596C120.662 133.068 120.845 133.523 121.025 133.954L122.641 133.981C122.373 133.36 122.098 132.715 121.816 132.039C121.408 131.061 120.987 130.019 120.57 128.939C120.987 128.746 124.21 127.211 125.479 125.883C126.552 126.487 127.658 127.028 128.793 127.503C128.488 128.756 128.206 129.978 127.961 131.126C127.741 132.144 127.544 133.129 127.364 134.056H127.961H128.878C129.024 133.211 129.184 132.331 129.36 131.404C129.561 130.358 129.785 129.258 130.039 128.128C130.511 128.199 134.297 128.736 136.015 128.24C137.58 127.788 139.444 126.776 140.062 125.184C140.68 123.592 139.933 121.755 138.236 121.293C135.879 120.655 132.511 123.486 131.326 125.313C131.248 125.428 130.504 126.912 130.141 127.69C130.294 127.011 130.44 126.332 130.61 125.622C130.844 124.603 131.122 123.534 131.391 122.495L131.866 120.879C132.019 120.325 132.229 119.819 132.409 119.28C132.691 118.495 133.02 117.697 133.35 116.903C134.368 117.205 137.394 118.037 138.955 117.833C140.517 117.629 142.565 116.91 143.417 115.412C144.269 113.915 143.811 112.017 142.201 111.29C139.971 110.302 136.215 112.591 134.762 114.217C134.715 114.268 134.446 114.645 134.127 115.093C134.467 114.326 134.806 113.559 135.187 112.795C136.246 110.625 137.394 108.449 138.534 106.262C138.772 105.807 139.003 105.349 139.237 104.904C140.1 105.162 143.362 106.092 145.009 105.878C146.656 105.664 148.622 104.951 149.471 103.457C150.319 101.964 149.864 100.062 148.255 99.3356C146.028 98.3476 142.269 100.636 140.816 102.259C140.765 102.32 140.443 102.768 140.086 103.278C140.69 102.079 141.274 100.88 141.818 99.6717C142.766 97.6021 143.574 95.4706 144.235 93.292C144.537 93.387 148.343 94.555 150.163 94.3106C151.776 94.1 153.772 93.387 154.625 91.8897C155.477 90.3924 155.015 88.4944 153.409 87.7678C151.178 86.7798 147.42 89.0682 145.97 90.6946C145.868 90.81 144.714 92.4431 144.32 93.0373L144.344 92.9626C144.927 90.8115 145.319 88.6129 145.515 86.3927C145.71 84.406 145.788 82.4095 145.749 80.4136C145.749 78.5598 145.607 76.8689 145.481 75.3716C145.406 74.5601 145.325 73.8199 145.24 73.1307L145.281 73.1612C145.318 73.185 146.181 70.3499 146.215 70.1666C146.605 68.0207 146.102 63.651 143.953 62.4966C142.405 61.6681 140.599 62.4966 139.954 64.0686C139.308 65.6406 139.954 67.6744 140.785 69.0767C141.617 70.4789 144.422 72.5501 145.121 73.0458C145.193 73.7656 145.264 74.5329 145.325 75.3817C145.417 76.8791 145.505 78.5699 145.481 80.4136C145.481 80.9059 145.451 81.4322 145.434 81.9483C145.281 81.0791 145.057 79.8873 145.019 79.7753C144.381 77.6939 141.919 74.044 139.482 74.0033C137.723 73.9795 136.507 75.5617 136.657 77.2424C136.806 78.923 138.324 80.4408 139.713 81.3167C141.149 82.2165 144.649 82.7394 145.417 82.8446C145.366 83.9787 145.284 85.1432 145.128 86.352C144.877 88.5457 144.43 90.7126 143.794 92.8268C143.756 92.9456 143.702 93.0679 143.665 93.1901C143.665 92.7487 143.481 90.3177 143.451 90.1513C143.043 88.0123 140.999 84.1145 138.579 83.8157C136.833 83.5984 135.451 85.0346 135.414 86.722C135.377 88.4095 136.718 90.0834 137.995 91.0952C139.465 92.2598 143.481 93.2376 143.634 93.275C142.941 95.3636 142.113 97.4051 141.156 99.3865C140.456 100.857 139.685 102.317 138.898 103.777C138.898 103.199 138.714 100.945 138.684 100.782C138.276 98.643 136.232 94.7451 133.812 94.4464C132.066 94.2291 130.688 95.6687 130.647 97.3527C130.606 99.0368 131.954 100.717 133.231 101.726C134.664 102.863 138.511 103.817 138.833 103.899C138.477 104.561 138.124 105.223 137.757 105.882C136.572 108.041 135.38 110.197 134.256 112.363C133.869 113.114 133.516 113.871 133.156 114.621C133.109 113.759 132.986 112.19 132.963 112.058C132.555 109.919 130.511 106.021 128.09 105.722C126.345 105.505 124.963 106.941 124.926 108.629C124.889 110.316 126.23 111.993 127.506 113.002C128.783 114.01 132.005 114.889 132.912 115.124C132.328 116.38 131.774 117.64 131.285 118.91C131.088 119.46 130.851 120.01 130.691 120.549L130.179 122.152C129.866 123.262 129.574 124.291 129.309 125.33C129.174 125.853 129.058 126.349 128.929 126.861C129.011 125.982 129.116 124.583 129.112 124.454C129.034 122.278 127.605 118.115 125.255 117.453C123.558 116.974 121.982 118.186 121.69 119.847C121.653 120.057 121.636 120.271 121.639 120.485C120.653 122.13 120.106 124 120.05 125.917C120.05 126.057 120.251 127.703 120.37 128.542C120.118 127.89 119.867 127.245 119.619 126.559C119.249 125.581 118.896 124.522 118.543 123.52C118.38 122.986 118.216 122.45 118.051 121.911C117.874 121.364 117.769 120.824 117.619 120.274C117.422 119.466 117.259 118.621 117.093 117.775C118.112 117.463 121.093 116.489 122.281 115.46C123.469 114.431 124.783 112.696 124.658 110.978C124.532 109.26 123.106 107.922 121.371 108.211C118.967 108.618 117.093 112.598 116.781 114.754C116.781 114.825 116.75 115.287 116.733 115.833C116.597 115.008 116.458 114.18 116.349 113.338C116.037 110.941 115.793 108.493 115.538 106.041C115.484 105.529 115.426 105.023 115.368 104.51C116.231 104.249 119.463 103.223 120.712 102.133C121.962 101.043 123.211 99.3695 123.089 97.6515C122.967 95.9335 121.534 94.5958 119.802 94.8844C117.395 95.2918 115.524 99.2745 115.209 101.43C115.209 101.505 115.178 102.059 115.158 102.677C115.002 101.346 114.818 100.021 114.614 98.7143C114.263 96.4661 113.762 94.244 113.114 92.0629C113.416 91.9746 117.232 90.8473 118.621 89.6454C119.85 88.5827 121.12 86.885 120.998 85.1636C120.875 83.4422 119.443 82.1078 117.711 82.3998C115.304 82.8039 113.433 86.7866 113.117 88.9426C113.097 89.0954 113.032 91.0952 113.036 91.8082L113.015 91.7301C112.326 89.6027 111.448 87.5414 110.391 85.571C109.457 83.8074 108.421 82.099 107.291 80.4543C106.255 78.9197 105.216 77.5785 104.283 76.38C103.773 75.745 103.298 75.1746 102.846 74.645H102.897C102.941 74.645 102.096 71.8065 102.025 71.6333C101.169 69.6301 98.3374 66.262 95.9132 66.4861C94.1612 66.6456 93.1188 68.3467 93.4448 70.0036C93.7707 71.6605 95.4378 73.0084 96.9012 73.7214C98.3646 74.4345 101.848 74.611 102.704 74.6416C103.162 75.1984 103.644 75.7994 104.164 76.4784C105.067 77.6736 106.075 79.0351 107.07 80.5868C107.338 81.001 107.607 81.4559 107.875 81.8905C107.27 81.2522 106.425 80.383 106.333 80.3083C104.636 78.923 100.585 77.2526 98.5241 78.5564C97.0438 79.507 96.9046 81.4967 97.9537 82.8141C99.0029 84.1314 101.142 84.5864 102.768 84.5457Z" fill="black"/>
<path d="M108.476 82.2184C108.438 82.2421 107.742 79.3595 107.719 79.1626C107.45 76.9998 108.204 72.6674 110.418 71.6386C112.014 70.8984 113.769 71.8457 114.319 73.4381C114.869 75.0305 114.105 77.0405 113.202 78.3919C112.139 79.9978 108.479 82.215 108.476 82.2184Z" fill="black"/>
</g>
<g opacity="0.3">
<path d="M40.1788 47.863L48.0566 39.1621L32.9915 25.5221L25.1137 34.223L40.1788 47.863Z" stroke="black" stroke-width="0.838567" stroke-miterlimit="10"/>
<path d="M38.6616 44.9158C38.9154 44.6376 39.2691 44.4714 39.6453 44.4536C40.0214 44.4358 40.3893 44.5678 40.6682 44.8207C40.7124 44.8615 40.7497 44.9022 40.7904 44.9464L45.3334 39.9553L45.1942 39.8466C44.9168 39.5924 44.7511 39.2388 44.7333 38.8629C44.7155 38.487 44.847 38.1194 45.0991 37.84L45.1636 37.7789L34.4039 27.9902L34.3496 28.0581C34.0959 28.3356 33.7425 28.5012 33.3669 28.5183C32.9913 28.5355 32.6243 28.403 32.3463 28.1498C32.3022 28.1114 32.2613 28.0693 32.2241 28.0242L27.6778 33.0187C27.7264 33.0519 27.7729 33.0882 27.817 33.1273C28.095 33.3805 28.2611 33.7337 28.2789 34.1093C28.2968 34.4849 28.1648 34.8522 27.9121 35.1306C27.8716 35.1739 27.8285 35.2147 27.783 35.2528L38.5631 45.0516C38.5869 45.0041 38.6242 44.9599 38.6616 44.9158ZM34.757 34.954C35.0666 34.6136 35.4703 34.3728 35.9169 34.2619C36.3634 34.151 36.8329 34.1751 37.2658 34.331C37.6987 34.487 38.0756 34.7679 38.3488 35.1382C38.622 35.5084 38.7792 35.9514 38.8006 36.411C38.822 36.8706 38.7066 37.3263 38.4689 37.7203C38.2313 38.1143 37.8821 38.429 37.4656 38.6245C37.049 38.82 36.5839 38.8876 36.1289 38.8187C35.674 38.7497 35.2497 38.5474 34.9098 38.2373C34.4545 37.8219 34.1827 37.2428 34.1541 36.6272C34.1254 36.0116 34.3423 35.4098 34.757 34.954Z" stroke="black" stroke-width="0.840038" stroke-miterlimit="10"/>
</g>
<g opacity="0.3">
<path d="M97.657 4.36889L94.6575 -7L74.9728 -1.80645L77.9724 9.56244L97.657 4.36889Z" stroke="black" stroke-width="0.840038" stroke-miterlimit="10"/>
<path d="M94.555 4.0104C94.46 3.64525 94.514 3.25731 94.705 2.93194C94.896 2.60656 95.2085 2.3704 95.5736 2.2754C95.6307 2.26192 95.6885 2.25172 95.7468 2.24484L94.022 -4.28433L93.8556 -4.22661C93.675 -4.17961 93.4869 -4.16868 93.3021 -4.19445C93.1173 -4.22023 92.9394 -4.28219 92.7785 -4.3768C92.6177 -4.47141 92.4771 -4.59681 92.3648 -4.74582C92.2525 -4.89483 92.1706 -5.06452 92.124 -5.2452C92.1156 -5.27308 92.1088 -5.30142 92.1036 -5.33008L78.0335 -1.61222C78.0335 -1.58506 78.0505 -1.5579 78.0606 -1.52734C78.1076 -1.34676 78.1186 -1.15868 78.0928 -0.973867C78.067 -0.789056 78.0051 -0.61114 77.9104 -0.450304C77.8158 -0.289467 77.6904 -0.148866 77.5414 -0.0365478C77.3924 0.0757707 77.2227 0.157602 77.0421 0.204263C76.9854 0.220471 76.9275 0.231829 76.8689 0.238216L78.5937 6.76738C78.6473 6.7431 78.703 6.72378 78.7601 6.70966C78.9407 6.66219 79.1289 6.65092 79.3138 6.67649C79.4988 6.70206 79.6769 6.76396 79.8378 6.85863C79.9988 6.95331 80.1394 7.07888 80.2516 7.22813C80.3638 7.37738 80.4454 7.54734 80.4917 7.72825C80.5079 7.7849 80.5192 7.84283 80.5256 7.90141L94.6059 4.18695C94.585 4.12932 94.568 4.07033 94.555 4.0104ZM84.0601 1.87815C83.9424 1.4334 83.9592 0.963718 84.1084 0.52852C84.2576 0.0933218 84.5326 -0.287842 84.8985 -0.566757C85.2644 -0.845671 85.7047 -1.00981 86.1639 -1.0384C86.6231 -1.06699 87.0805 -0.95875 87.4781 -0.727376C87.8758 -0.496003 88.1959 -0.151889 88.3979 0.261437C88.6 0.674763 88.6749 1.13873 88.6133 1.59465C88.5516 2.05057 88.3561 2.47796 88.0515 2.82275C87.7469 3.16754 87.3468 3.41425 86.902 3.53166C86.3059 3.689 85.6717 3.60321 85.1388 3.29316C84.6059 2.9831 84.2179 2.47414 84.0601 1.87815Z" stroke="black" stroke-width="0.840038" stroke-miterlimit="10"/>
</g>
<g opacity="0.3">
<path d="M109.584 67.955L116.485 77.4746L132.968 65.5256L126.066 56.006L109.584 67.955Z" stroke="black" stroke-width="0.840038" stroke-miterlimit="10"/>
<path d="M112.604 67.1701C112.825 67.4751 112.915 67.8551 112.856 68.2267C112.797 68.5983 112.593 68.9314 112.289 69.1529C112.241 69.1867 112.191 69.2173 112.139 69.2446L116.101 74.711C116.146 74.6737 116.19 74.6329 116.237 74.599C116.388 74.4896 116.559 74.4109 116.74 74.3675C116.921 74.3242 117.109 74.3169 117.293 74.3463C117.476 74.3756 117.653 74.4409 117.811 74.5385C117.97 74.636 118.108 74.7639 118.217 74.9147C118.236 74.9383 118.253 74.9633 118.268 74.9894L130.043 66.4503L129.988 66.3824C129.879 66.2315 129.8 66.0604 129.757 65.8791C129.713 65.6978 129.706 65.5096 129.735 65.3255C129.765 65.1414 129.83 64.9648 129.927 64.8059C130.025 64.647 130.153 64.5089 130.304 64.3995C130.352 64.3658 130.402 64.3351 130.453 64.3078L126.501 58.8414C126.458 58.8816 126.413 58.919 126.365 58.9534C126.215 59.063 126.044 59.1417 125.862 59.1851C125.681 59.2285 125.493 59.2358 125.309 59.2064C125.124 59.1771 124.948 59.1118 124.789 59.0142C124.63 58.9166 124.492 58.7887 124.383 58.6377C124.349 58.5899 124.318 58.54 124.291 58.4883L112.502 67.0343C112.53 67.0954 112.581 67.1225 112.604 67.1701ZM123.154 65.3774C123.423 65.7499 123.576 66.1941 123.593 66.6537C123.611 67.1133 123.491 67.5677 123.25 67.9594C123.009 68.3511 122.658 68.6626 122.24 68.8545C121.822 69.0464 121.356 69.1101 120.902 69.0375C120.448 68.9649 120.026 68.7593 119.688 68.4466C119.351 68.134 119.114 67.7283 119.007 67.281C118.9 66.8337 118.929 66.3647 119.088 65.9334C119.248 65.5021 119.532 65.1278 119.904 64.8579C120.151 64.6781 120.432 64.5488 120.729 64.4776C121.026 64.4064 121.335 64.3946 121.637 64.4428C121.939 64.4911 122.228 64.5985 122.488 64.7589C122.749 64.9192 122.975 65.1294 123.154 65.3774Z" stroke="black" stroke-width="0.840038" stroke-miterlimit="10"/>
</g>
<g opacity="0.3">
<path d="M128.166 21.2313L120.719 30.3301L136.473 43.2246L143.92 34.1258L128.166 21.2313Z" stroke="black" stroke-width="0.840038" stroke-miterlimit="10"/>
<path d="M129.693 23.9507C129.454 24.2414 129.11 24.4254 128.735 24.4623C128.361 24.4993 127.987 24.3861 127.696 24.1476C127.651 24.1106 127.608 24.071 127.567 24.0288L123.293 29.2541L123.435 29.356C123.726 29.5948 123.91 29.9388 123.947 30.3129C123.985 30.687 123.873 31.0607 123.636 31.3524L123.574 31.4169L134.833 40.6284C134.833 40.6046 134.864 40.5809 134.884 40.5571C135.123 40.2664 135.467 40.0824 135.842 40.0454C136.216 40.0085 136.59 40.1217 136.881 40.3602L137.01 40.479L141.284 35.2536C141.235 35.2228 141.187 35.1888 141.142 35.1518C140.851 34.9135 140.666 34.5694 140.628 34.195C140.591 33.8207 140.703 33.4467 140.941 33.1553C140.979 33.1102 141.02 33.0682 141.064 33.0297L129.795 23.8047C129.764 23.8555 129.73 23.9042 129.693 23.9507ZM134.107 33.6918C133.817 34.0487 133.427 34.3116 132.988 34.4472C132.548 34.5828 132.079 34.5852 131.638 34.4538C131.197 34.3225 130.805 34.0635 130.512 33.7095C130.218 33.3554 130.036 32.9223 129.989 32.4649C129.941 32.0074 130.03 31.5462 130.245 31.1394C130.46 30.7327 130.79 30.3987 131.194 30.1797C131.599 29.9607 132.059 29.8665 132.517 29.9091C132.975 29.9516 133.41 30.129 133.767 30.4187C134.247 30.8066 134.554 31.3692 134.619 31.9829C134.685 32.5966 134.504 33.2112 134.117 33.6918H134.107Z" stroke="black" stroke-width="0.840038" stroke-miterlimit="10"/>
</g>
<g opacity="0.3">
<path d="M0.999952 108.25L7.90112 117.77L24.3838 105.821L17.4826 96.3009L0.999952 108.25Z" stroke="black" stroke-width="0.840038" stroke-miterlimit="10"/>
<path d="M4.02601 107.465C4.13545 107.616 4.2141 107.786 4.25746 107.967C4.30083 108.149 4.30805 108.336 4.27872 108.52C4.24939 108.704 4.18408 108.88 4.08653 109.039C3.98899 109.198 3.86112 109.335 3.71025 109.444C3.65932 109.482 3.61178 109.509 3.56085 109.54L7.52317 115.006C7.5654 114.964 7.6108 114.925 7.65898 114.891C7.96393 114.671 8.34361 114.581 8.71471 114.641C9.08582 114.701 9.41803 114.905 9.63844 115.21L9.68598 115.281L21.4643 106.745L21.4099 106.674C21.3005 106.523 21.2219 106.353 21.1785 106.171C21.1351 105.99 21.1279 105.803 21.1572 105.619C21.1866 105.435 21.2519 105.259 21.3494 105.1C21.447 104.941 21.5748 104.804 21.7257 104.694C21.7732 104.66 21.8242 104.63 21.8751 104.599L17.9128 99.1329L17.777 99.2484C17.4716 99.4678 17.0919 99.5577 16.7206 99.4986C16.3492 99.4395 16.0162 99.236 15.7941 98.9326C15.7602 98.8817 15.7296 98.8341 15.7024 98.7832L3.93094 107.329C3.95131 107.37 3.98866 107.417 4.02601 107.465ZM14.5752 105.669C14.8453 106.041 14.9989 106.485 15.0167 106.945C15.0345 107.404 14.9156 107.859 14.675 108.251C14.4345 108.643 14.0831 108.955 13.6653 109.147C13.2475 109.34 12.7821 109.404 12.3278 109.332C11.8736 109.259 11.4509 109.054 11.1133 108.742C10.7757 108.43 10.5382 108.024 10.431 107.577C10.3237 107.13 10.3515 106.661 10.5108 106.229C10.6701 105.798 10.9538 105.423 11.3259 105.153C11.8255 104.791 12.4481 104.642 13.0573 104.739C13.6664 104.836 14.2123 105.17 14.5752 105.669Z" stroke="black" stroke-width="0.840038" stroke-miterlimit="10"/>
</g>
<path d="M24.038 63.4718L33.5448 67.8517L41.3778 57.2991C41.3778 57.2991 41.2657 54.6372 41.3778 54.2433C41.7264 53.5454 42.1342 52.8786 42.5967 52.2503C42.763 52.0262 43.0958 52.2503 43.1501 52.5898C43.2044 52.9293 42.9837 53.201 42.8751 53.4794C42.7664 53.7578 42.5356 54.3656 42.5356 54.3656L42.8106 55.1974L45.7475 52.8682C45.7475 52.8682 46.4266 51.9821 46.6371 52.3691C46.7032 52.4846 46.734 52.6169 46.7255 52.7497C46.7171 52.8825 46.6698 53.0099 46.5895 53.1161L45.2518 54.919L46.138 54.9733L48.2974 53.1466C48.2974 53.1466 48.6844 52.9803 48.7422 53.4862C48.7589 53.6406 48.7395 53.7969 48.6852 53.9425C48.631 54.0881 48.5435 54.219 48.4298 54.3248L47.1056 55.5641L46.2466 56.0904L48.7965 55.0378C48.7965 55.0378 49.136 55.3774 49.0172 55.5369L46.2466 57.6964L48.2838 57.3568C48.2838 57.3568 48.5622 57.7439 48.3958 57.968L42.7427 59.574C42.7427 59.574 34.8554 74.3944 34.7433 74.6151C34.6313 74.8358 33.4701 75.3349 32.5839 75.0599C31.6978 74.7849 20.3608 69.8481 20.3608 69.8481" fill="#FFBD59"/>
<path d="M24.038 63.4718L33.5448 67.8517L41.3778 57.2991C41.3778 57.2991 41.2657 54.6372 41.3778 54.2433C41.7264 53.5454 42.1342 52.8786 42.5967 52.2503C42.763 52.0262 43.0958 52.2503 43.1501 52.5898C43.2044 52.9293 42.9837 53.201 42.8751 53.4794C42.7664 53.7578 42.5356 54.3656 42.5356 54.3656L42.8106 55.1974L45.7475 52.8682C45.7475 52.8682 46.4266 51.9821 46.6371 52.3691C46.7032 52.4846 46.734 52.6169 46.7255 52.7497C46.7171 52.8825 46.6698 53.0099 46.5895 53.1161L45.2518 54.919L46.138 54.9733L48.2974 53.1466C48.2974 53.1466 48.6844 52.9803 48.7422 53.4862C48.7589 53.6406 48.7395 53.7969 48.6852 53.9425C48.631 54.0881 48.5435 54.219 48.4298 54.3248L47.1056 55.5641L46.2466 56.0904L48.7965 55.0378C48.7965 55.0378 49.136 55.3774 49.0172 55.5369L46.2466 57.6964L48.2838 57.3568C48.2838 57.3568 48.5622 57.7439 48.3958 57.968L42.7427 59.574C42.7427 59.574 34.8554 74.3944 34.7433 74.6151C34.6313 74.8358 33.4701 75.3349 32.5839 75.0599C31.6978 74.7849 20.3608 69.8481 20.3608 69.8481" stroke="#263238" stroke-width="0.840038" stroke-miterlimit="10"/>
<path d="M38.6106 67.3598L42.7563 59.571L48.4094 57.965C48.5758 57.7409 48.2974 57.3538 48.2974 57.3538L46.2602 57.6934L49.0308 55.5339C49.1428 55.3676 48.8101 55.0348 48.8101 55.0348L46.2602 56.0874L47.1192 55.5611L48.4434 54.3218C48.5571 54.216 48.6446 54.0851 48.6988 53.9395C48.753 53.7939 48.7725 53.6376 48.7557 53.4832C48.698 52.9841 48.311 53.1436 48.311 53.1436L46.1516 54.9703L45.2654 54.916L46.6031 53.1131C46.6834 53.0069 46.7306 52.8795 46.7391 52.7467C46.7476 52.6139 46.7168 52.4816 46.6507 52.3661C46.4266 51.9791 45.7611 52.8652 45.7611 52.8652L42.8106 55.2114L42.5356 54.3795C42.5356 54.3795 42.7562 53.7684 42.8751 53.4934C42.9939 53.2183 43.2146 52.9365 43.1501 52.6038C43.0856 52.2711 42.763 52.0504 42.5967 52.2643C42.1342 52.8926 41.7264 53.5594 41.3778 54.2573C41.2657 54.6444 41.3778 57.3131 41.3778 57.3131L35.565 65.1426L38.6106 67.3598Z" fill="white" stroke="#263238" stroke-width="0.840038" stroke-miterlimit="10"/>
<path d="M42.8106 55.2109C43.1092 55.4606 43.356 55.7663 43.5372 56.1107C43.7138 56.5453 42.9295 57.5876 42.5831 57.7608" stroke="#263238" stroke-width="0.840038" stroke-miterlimit="10"/>
<path d="M63.7514 58.0533C69.7169 52.0879 69.7169 42.416 63.7514 36.4506C57.786 30.4851 48.1141 30.4851 42.1487 36.4506C36.1832 42.416 36.1832 52.0879 42.1487 58.0533C48.1141 64.0188 57.786 64.0188 63.7514 58.0533Z" fill="white" stroke="#263238" stroke-width="0.840038" stroke-miterlimit="10"/>
<path d="M58.3179 58.9026C64.7516 55.9366 67.5627 48.3168 64.5968 41.8831C61.6308 35.4494 54.0109 32.6383 47.5773 35.6043C41.1436 38.5702 38.3325 46.1901 41.2984 52.6238C44.2644 59.0574 51.8843 61.8685 58.3179 58.9026Z" fill="white" stroke="#263238" stroke-width="0.840038" stroke-miterlimit="10"/>
<g clip-path="url(#clip0_1388_38829)">
<path d="M45.1619 46.7999L47.0958 46.2901L45.5664 40.4882L47.5004 39.9784L52.3368 44.9085L56.7655 43.7411L55.2361 37.9393L57.1701 37.4295L58.6995 43.2313L60.6334 42.7215L61.1432 44.6554L59.2092 45.1652L59.719 47.0991L61.653 46.5893L62.1628 48.5233L60.2288 49.0331L61.7582 54.8349L59.8243 55.3447L54.9782 50.4172L50.5592 51.5821L52.0886 57.3839L50.1546 57.8937L48.6252 52.0919L46.6913 52.6017L46.1815 50.6677L48.1154 50.1579L47.6056 48.224L45.6717 48.7338L45.1619 46.7999ZM49.0298 45.7803L50.1224 45.4922L48.5276 43.8753L49.0298 45.7803ZM49.5396 47.7142L50.0494 49.6481L53.3564 48.7764L51.7443 47.133L49.5396 47.7142ZM58.8047 51.4768L58.2949 49.5429L57.1829 49.836L58.8047 51.4768ZM53.9489 46.5518L55.5708 48.1926L57.7851 47.6089L57.2753 45.675L53.9489 46.5518Z" fill="#263238"/>
</g>
<path d="M41.045 130.082L45.0752 132.934C45.0752 132.934 47.5063 133.433 47.8187 133.685C48.131 133.936 48.1276 134.992 48.1276 134.992C48.1276 134.992 45.6389 135.304 43.3335 135.365C41.0281 135.427 39.8431 135.365 38.0368 135.304C36.2305 135.243 34.7366 135.365 34.3631 134.931C33.9896 134.496 34.3631 130.69 34.3631 130.69C34.3631 130.69 38.5631 128.408 41.045 130.082Z" fill="white" stroke="#263238" stroke-width="0.840038" stroke-miterlimit="10"/>
<path d="M43.3335 135.364C45.6389 135.303 48.1277 134.99 48.1277 134.99C48.1259 134.763 48.1077 134.536 48.0734 134.311C45.4963 134.522 40.709 134.855 39.4086 134.539C37.9282 134.182 35.1576 134.036 34.2002 133.992C34.1787 134.309 34.2346 134.626 34.3631 134.916C34.7366 135.35 36.2306 135.225 38.0369 135.289C39.8432 135.354 41.0281 135.425 43.3335 135.364Z" fill="white" stroke="#263238" stroke-width="0.840038" stroke-miterlimit="10"/>
<path d="M17.9468 131.811L20.0655 134.49L23.7392 136.795C23.9871 137.542 23.8649 137.729 23.8003 137.98C23.7358 138.231 22.6188 138.289 21.2471 138.228C19.8754 138.167 16.514 138.601 15.5158 138.289C14.5176 137.977 11.343 137.107 10.9695 136.931C10.596 136.754 9.97129 136.557 10.158 135.872C10.3448 135.186 10.8948 132.782 10.8948 132.782C11.9291 132.117 13.0959 131.686 14.3137 131.519C15.5316 131.351 16.7714 131.451 17.9468 131.811Z" fill="white" stroke="#263238" stroke-width="0.840038" stroke-miterlimit="10"/>
<path d="M21.2471 138.231C22.6052 138.292 23.7392 138.231 23.8003 137.983C23.8787 137.774 23.9032 137.548 23.8717 137.327C22.174 137.399 17.7601 137.572 16.514 137.419C15.088 137.249 10.9559 135.721 10.2599 135.467C10.2225 135.626 10.1852 135.762 10.158 135.864C9.97129 136.543 10.596 136.737 10.9695 136.923C11.343 137.11 14.521 137.983 15.5158 138.282C16.5106 138.58 19.889 138.169 21.2471 138.231Z" fill="white" stroke="#263238" stroke-width="0.840038" stroke-miterlimit="10"/>
<path d="M15.2576 88.5383L17.0232 109.908L11.5432 129.645L10.7623 132.772C10.7623 132.772 11.37 133.295 13.0235 133.207C14.677 133.119 17.9773 132.338 17.9773 132.338C18.2202 131.884 18.3374 131.374 18.3168 130.861C18.2285 130.165 17.8822 129.903 17.8822 129.645C17.8822 129.387 25.1957 109.908 25.1957 109.908L25.8748 98.6053L30.8319 111.212L34.0472 130.688C34.0472 130.688 34.2238 131.645 34.4818 131.557C34.7399 131.468 39.1062 129.907 39.1062 129.907L40.7564 130.083C40.7564 130.083 40.9295 127.56 40.2335 127.027C39.8451 126.752 39.5198 126.396 39.2794 125.985L38.5834 107.467L31.7928 88.4262L31.1816 86.0801L15.5429 86.9561L15.2576 88.5383Z" fill="#263238" stroke="#263238" stroke-width="0.840038" stroke-miterlimit="10"/>
<path d="M15.2577 88.5389L15.3969 89.7035L31.803 88.4336L31.0968 86.9023L15.2577 88.5389Z" fill="#FFBD59" stroke="#263238" stroke-width="0.840038" stroke-miterlimit="10"/>
<path d="M13.4378 61.8806C13.4378 61.8806 12.4192 65.2589 12.5414 66.8106C12.6637 68.3622 14.5786 80.6125 14.5786 80.6125L15.3018 85.3218C15.3018 85.3218 14.745 86.7614 14.8027 87.0941C14.8604 87.4269 14.745 88.313 15.2441 88.5371C15.7432 88.7612 19.9704 88.4828 24.3028 88.3708C28.6352 88.2587 30.2887 88.0923 30.8421 87.8716C31.3955 87.6509 32.061 86.8734 31.949 86.2657C31.8075 85.68 31.6225 85.1057 31.3955 84.5476C31.3955 84.5476 31.1748 69.7475 30.8421 67.4761C30.5094 65.2046 30.1223 62.1013 28.9577 60.9367C27.7931 59.7721 25.8442 59.2832 25.8442 59.2832L24.3028 62.1556C24.3028 62.1556 18.9823 59.9962 17.0436 59.7789C15.1049 59.5616 13.4378 61.8806 13.4378 61.8806Z" fill="#FFBD59" stroke="#263238" stroke-width="0.840038" stroke-miterlimit="10"/>
<path d="M16.6803 72.6758C15.9605 72.8965 15.3664 73.0662 15.0778 73.1172" stroke="#263238" stroke-width="0.840038" stroke-miterlimit="10"/>
<path d="M21.5865 71.0352C21.5865 71.0352 19.5222 71.7584 17.6819 72.3559" stroke="#263238" stroke-width="0.840038" stroke-miterlimit="10"/>
<path d="M16.4256 76.7227C16.141 76.9302 15.8414 77.1163 15.5292 77.2795" stroke="#263238" stroke-width="0.840038" stroke-miterlimit="10"/>
<path d="M22.1366 71.6699C22.1366 71.6699 19.5154 74.2911 17.3832 76.0091" stroke="#263238" stroke-width="0.840038" stroke-miterlimit="10"/>
<path d="M25.0667 65.0565C25.0667 65.0565 20.5781 62.6798 18.4187 62.0008C16.2593 61.3217 15.4818 61.2266 14.9827 61.3217C14.4836 61.4168 12.5414 63.4302 12.3751 62.8767C12.2087 62.3233 12.9862 58.7752 13.2069 57.9977C13.4276 57.2202 16.8093 56.2797 17.7532 56.0047C18.6971 55.7296 23.4064 57.5563 24.459 57.889C25.5115 58.2218 26.4961 59.4407 26.4961 60.2658C26.4961 61.0908 25.0667 65.0565 25.0667 65.0565Z" fill="#FFBD59" stroke="#263238" stroke-width="0.840038" stroke-miterlimit="10"/>
<path d="M13.6279 59.1768C13.6279 59.1768 14.5345 58.4536 15.0777 58.8169C15.621 59.1802 24.7509 64.3207 24.7509 64.3207L25.2127 59.5401" stroke="#263238" stroke-width="0.840038" stroke-miterlimit="10"/>
<path d="M26.5097 44.6289C26.5097 44.6289 27.2974 47.0056 27.2974 47.5964C27.2974 48.1872 27.019 49.1718 27.2057 49.5419C27.3924 49.912 28.5027 51.6266 28.3194 51.9186C28.136 52.2106 27.4366 53.2156 27.4366 53.2156C27.4366 53.2156 27.2532 56.689 27.0665 57.0625C26.8797 57.436 25.6778 57.402 25.121 57.402H23.9632C23.9632 57.402 24.9818 64.2605 24.7509 64.3522C24.52 64.4439 17.8924 57.6804 17.8924 57.6804L18.1233 52.7233C18.1233 52.7233 15.8145 49.2635 16.1778 47.7424C16.5411 46.2213 20.1638 45.0092 22.1094 44.4999C24.0549 43.9906 26.5097 44.6289 26.5097 44.6289Z" fill="white" stroke="#263238" stroke-width="0.840038" stroke-miterlimit="10"/>
<path d="M26.0004 49.8469C26.0683 50.1864 25.9665 50.5259 25.7797 50.5497C25.593 50.5735 25.3859 50.3256 25.318 49.9759C25.25 49.6262 25.3519 49.2968 25.542 49.2731C25.7322 49.2493 25.9291 49.4938 26.0004 49.8469Z" fill="#263238"/>
<path d="M24.7509 48.6146C24.9508 48.3798 25.2163 48.2102 25.5133 48.1273C25.8103 48.0444 26.1253 48.0521 26.4179 48.1494" stroke="#263238" stroke-width="0.840038" stroke-miterlimit="10"/>
<path d="M24.0549 52.4141C24.5269 53.0483 25.2224 53.4792 26.0004 53.6194" stroke="#263238" stroke-width="0.840038" stroke-miterlimit="10"/>
<path d="M18.9587 50.886C18.9587 50.886 20.164 51.0693 20.164 50.7468C20.164 50.4242 20.0248 49.2155 20.0248 49.2155C20.0248 49.2155 21.6444 47.9185 21.6002 47.3175C21.5561 46.7166 20.8125 46.2039 20.8566 46.0205C20.9008 45.8372 23.0806 45.1853 24.8427 45.1853C26.6049 45.1853 26.975 45.5554 27.5318 44.7201C28.0886 43.8849 28.5029 42.7746 27.4367 41.6168C26.3706 40.459 25.8613 40.9683 25.3079 40.8291C24.7544 40.6899 23.1281 39.067 22.0178 39.4404C21.7032 39.5375 21.4207 39.7178 21.2002 39.9623C20.9796 40.2067 20.8293 40.5062 20.765 40.8291C20.765 40.8291 18.6803 39.4404 17.8009 40.1806C17.2993 40.5722 16.9557 41.1316 16.8332 41.756C16.4246 41.7862 16.0308 41.9215 15.6899 42.1487C15.3491 42.376 15.0727 42.6875 14.8877 43.053C14.2833 44.3059 14.3309 44.9985 14.3309 44.9985C14.3309 44.9985 13.1663 45.7048 13.2138 46.7234C13.2056 47.2418 13.3332 47.7533 13.5839 48.2071C13.5839 48.2071 12.6095 48.6247 13.5839 50.1051C14.5584 51.5854 14.942 51.7756 14.942 51.7756C14.942 51.7756 13.8318 51.9148 14.942 52.8417C16.0523 53.7686 18.0929 54.1387 18.558 54.3696C19.0232 54.6005 19.1149 53.0726 19.1149 52.1457C19.1374 51.7198 19.0845 51.2934 18.9587 50.886Z" fill="#263238" stroke="#263238" stroke-width="0.840038" stroke-miterlimit="10"/>
<path d="M19.6987 51.347C19.6987 51.347 18.4934 49.7784 17.8517 50.2809C17.21 50.7834 17.6208 53.0141 18.3168 53.7102C19.0129 54.4062 20.0315 53.2009 20.0315 53.2009" fill="white"/>
<path d="M19.6987 51.347C19.6987 51.347 18.4934 49.7784 17.8517 50.2809C17.21 50.7834 17.6208 53.0141 18.3168 53.7102C19.0129 54.4062 20.0315 53.2009 20.0315 53.2009" stroke="#263238" stroke-width="0.840038" stroke-miterlimit="10"/>
<path d="M23.9633 57.3718L21.9634 57.3379L24.2926 59.7214L23.9633 57.3718Z" fill="#263238" stroke="#263238" stroke-width="0.840038" stroke-miterlimit="10"/>
<path d="M19.0809 63.2105L28.5877 67.5905L36.4173 57.0379C36.4173 57.0379 36.3086 54.3793 36.4173 53.9821C36.5259 53.5848 37.4732 52.2097 37.6396 51.989C37.806 51.7683 38.1353 51.989 38.193 52.3286C38.2508 52.6681 38.0267 52.9363 37.9146 53.2147C37.8026 53.4932 37.5751 54.1009 37.5751 54.1009L37.8535 54.9328L40.7904 52.6036C40.7904 52.6036 41.4695 51.7174 41.6766 52.1045C41.7432 52.2196 41.7746 52.3518 41.7667 52.4846C41.7589 52.6174 41.7122 52.745 41.6325 52.8515L40.2744 54.6544L41.1605 54.7121L43.3233 52.882C43.3233 52.882 43.7104 52.7156 43.7647 53.2215C43.7828 53.3763 43.7642 53.5331 43.7105 53.6794C43.6569 53.8256 43.5696 53.9572 43.4558 54.0636L42.1282 55.2995L41.2794 55.8189L43.8292 54.7664C43.8292 54.7664 44.1688 55.1059 44.0499 55.2655L41.2794 57.4249L43.3165 57.0854C43.3165 57.0854 43.5916 57.4759 43.4252 57.6965L37.772 59.3025C37.772 59.3025 29.8847 74.123 29.7761 74.3437C29.6674 74.5644 28.4995 75.0635 27.6133 74.7885C26.7271 74.5135 15.3902 69.5801 15.3902 69.5801" fill="#FFBD59"/>
<path d="M19.0809 63.2105L28.5877 67.5905L36.4173 57.0379C36.4173 57.0379 36.3086 54.3793 36.4173 53.9821C36.5259 53.5848 37.4732 52.2097 37.6396 51.989C37.806 51.7683 38.1353 51.989 38.193 52.3286C38.2508 52.6681 38.0267 52.9363 37.9146 53.2147C37.8026 53.4932 37.5751 54.1009 37.5751 54.1009L37.8535 54.9328L40.7904 52.6036C40.7904 52.6036 41.4695 51.7174 41.6766 52.1045C41.7432 52.2196 41.7746 52.3518 41.7667 52.4846C41.7589 52.6174 41.7122 52.745 41.6325 52.8515L40.2744 54.6544L41.1605 54.7121L43.3233 52.882C43.3233 52.882 43.7104 52.7156 43.7647 53.2215C43.7828 53.3763 43.7642 53.5331 43.7105 53.6794C43.6569 53.8256 43.5696 53.9572 43.4558 54.0636L42.1282 55.2995L41.2794 55.8189L43.8292 54.7664C43.8292 54.7664 44.1688 55.1059 44.0499 55.2655L41.2794 57.4249L43.3165 57.0854C43.3165 57.0854 43.5916 57.4759 43.4252 57.6965L37.772 59.3025C37.772 59.3025 29.8847 74.123 29.7761 74.3437C29.6674 74.5644 28.4995 75.0635 27.6133 74.7885C26.7271 74.5135 15.3902 69.5801 15.3902 69.5801" stroke="#263238" stroke-width="0.840038" stroke-miterlimit="10"/>
<path d="M33.6569 67.0955L37.7992 59.3067L43.4524 57.7007C43.6187 57.48 43.3437 57.0896 43.3437 57.0896L41.3065 57.4291L44.0771 55.2697C44.1892 55.1033 43.8564 54.7706 43.8564 54.7706L41.3065 55.8231L42.1622 55.2969L43.4897 54.061C43.6036 53.9546 43.6908 53.823 43.7445 53.6768C43.7982 53.5305 43.8167 53.3737 43.7987 53.2189C43.7444 52.7198 43.3573 52.8794 43.3573 52.8794L41.1945 54.7095L40.3083 54.6518L41.6664 52.8488C41.7462 52.7423 41.7928 52.6148 41.8007 52.482C41.8085 52.3492 41.7772 52.217 41.7106 52.1019C41.4899 51.7148 40.8244 52.601 40.8244 52.601L37.8875 54.9302L37.6091 54.0983C37.6091 54.0983 37.8298 53.4872 37.9486 53.2121C38.0674 52.9371 38.2881 52.6587 38.227 52.326C38.1659 51.9932 37.8365 51.7691 37.6702 51.9864C37.5038 52.2037 36.5633 53.5924 36.4513 53.9795C36.3392 54.3665 36.4513 57.0353 36.4513 57.0353L30.6419 64.8648L33.6569 67.0955Z" fill="white" stroke="#263238" stroke-width="0.840038" stroke-miterlimit="10"/>
<path d="M113.599 22.4434V125.341C113.599 126.694 113.063 127.992 112.109 128.95C111.154 129.908 109.859 130.449 108.506 130.455H64.028C62.6754 130.449 61.38 129.908 60.4255 128.95C59.471 127.992 58.935 126.694 58.9351 125.341V22.4434C58.9342 21.0905 59.4698 19.7925 60.4245 18.8339C61.3792 17.8754 62.6751 17.3346 64.028 17.3301H83.1096V17.3912C83.5849 19.0888 84.6816 20.2161 85.8937 20.2161H86.5932C87.8053 20.2161 88.902 19.1024 89.3773 17.3912V17.3301H108.506C109.859 17.3355 111.154 17.8766 112.109 18.8349C113.063 19.7933 113.599 21.0908 113.599 22.4434Z" fill="white" stroke="#263238" stroke-width="0.840038" stroke-linecap="round" stroke-linejoin="round"/>
<path d="M113.599 25.3566V22.4434C113.599 21.0908 113.063 19.7933 112.109 18.8349C111.154 17.8766 109.859 17.3355 108.506 17.3301H89.4181V17.3912C88.9427 19.0888 87.846 20.2161 86.6339 20.2161H85.9345C84.7224 20.2161 83.6257 19.1024 83.1503 17.3912V17.3301H64.028C62.6751 17.3346 61.3792 17.8754 60.4245 18.8339C59.4698 19.7925 58.9342 21.0905 58.9351 22.4434V25.3566H113.599Z" fill="#263238" stroke="#263238" stroke-width="0.840038" stroke-miterlimit="10"/>
<path d="M58.9351 122.592V125.342C58.935 126.695 59.471 127.992 60.4255 128.95C61.38 129.909 62.6754 130.45 64.028 130.455H108.506C109.859 130.45 111.154 129.909 112.109 128.95C113.063 127.992 113.599 126.695 113.599 125.342V122.592H58.9351Z" fill="#263238" stroke="#263238" stroke-width="0.840038" stroke-miterlimit="10"/>
<path d="M117.09 47.0219V36.7443H116.159V23.5875C116.156 21.4383 115.3 19.3783 113.779 17.8595C112.258 16.3407 110.197 15.4872 108.048 15.4863H64.4864C62.3354 15.4872 60.2727 16.3421 58.7518 17.8631C57.2308 19.3841 56.3759 21.4467 56.375 23.5977V128.136C56.3759 130.287 57.2308 132.349 58.7518 133.87C60.2727 135.391 62.3354 136.246 64.4864 136.247H108.048C110.199 136.246 112.262 135.391 113.783 133.87C115.304 132.349 116.159 130.287 116.159 128.136V55.7784H117.09V49.7076H116.159V47.0219H117.09ZM113.599 122.343C113.599 124.494 112.745 126.557 111.225 128.078C109.704 129.599 107.642 130.454 105.491 130.455H67.0329C64.8839 130.451 62.8243 129.595 61.306 128.074C59.7878 126.553 58.9351 124.492 58.9351 122.343V25.438C58.936 23.2879 59.7905 21.2261 61.3108 19.7057C62.8312 18.1854 64.8929 17.3309 67.043 17.33H83.1266V17.3911C83.6019 19.0887 84.6986 20.216 85.9107 20.216H86.6102C87.8223 20.216 88.919 19.1023 89.3943 17.3911V17.33H105.478C106.544 17.3286 107.599 17.5373 108.584 17.9442C109.569 18.351 110.465 18.948 111.219 19.7009C111.973 20.4539 112.572 21.3482 112.98 22.3326C113.388 23.3169 113.599 24.3722 113.599 25.438V122.343Z" fill="#FFBD59" stroke="#263238" stroke-width="0.840038" stroke-linecap="round" stroke-linejoin="round"/>
<path d="M107.4 16.5938H65.1349C63.0638 16.5938 61.0775 17.4165 59.613 18.881C58.1485 20.3455 57.3257 22.3318 57.3257 24.4029V127.281C57.3257 129.352 58.1485 131.338 59.613 132.802C61.0775 134.267 63.0638 135.09 65.1349 135.09H107.4C109.471 135.09 111.457 134.267 112.922 132.802C114.386 131.338 115.209 129.352 115.209 127.281V24.4029C115.209 22.3318 114.386 20.3455 112.922 18.881C111.457 17.4165 109.471 16.5938 107.4 16.5938ZM113.599 122.632C113.599 124.704 112.777 126.69 111.312 128.154C109.848 129.619 107.861 130.442 105.79 130.442H66.7443C64.6732 130.442 62.6869 129.619 61.2224 128.154C59.7579 126.69 58.9351 124.704 58.9351 122.632V25.1533C58.9351 23.0822 59.7579 21.0959 61.2224 19.6314C62.6869 18.1669 64.6732 17.3441 66.7443 17.3441H83.1165V17.4052C83.5918 19.1029 84.6885 20.2301 85.9006 20.2301H86.6C87.8122 20.2301 88.9088 19.1165 89.3842 17.4052V17.3441H105.79C107.861 17.3441 109.848 18.1669 111.312 19.6314C112.777 21.0959 113.599 23.0822 113.599 25.1533V122.632Z" fill="#263238" stroke="#263238" stroke-width="0.840038" stroke-linecap="round" stroke-linejoin="round"/>
<path d="M86.8614 17.7195C86.8614 17.5692 86.8169 17.4223 86.7335 17.2973C86.6501 17.1723 86.5315 17.0749 86.3927 17.0172C86.2539 16.9595 86.1012 16.9443 85.9537 16.9734C85.8063 17.0024 85.6708 17.0745 85.5643 17.1805C85.4578 17.2866 85.3851 17.4218 85.3554 17.5691C85.3256 17.7164 85.3402 17.8692 85.3973 18.0082C85.4543 18.1473 85.5513 18.2663 85.6759 18.3502C85.8005 18.4342 85.9472 18.4794 86.0975 18.4801C86.1976 18.4805 86.2969 18.4612 86.3896 18.4232C86.4822 18.3851 86.5665 18.3292 86.6375 18.2585C86.7085 18.1878 86.7648 18.1039 86.8032 18.0114C86.8416 17.9189 86.8614 17.8197 86.8614 17.7195Z" fill="white"/>
<path d="M63.7835 20.6364C63.7835 21.4071 62.9177 21.6821 62.9143 22.2729V22.3102H63.7564V22.5717H62.6359V22.351C62.6359 21.5259 63.4983 21.3664 63.4983 20.6533C63.4983 20.3919 63.4135 20.2527 63.1995 20.2527C62.9856 20.2527 62.9008 20.4021 62.9008 20.6296V20.8537H62.6359V20.6465C62.6359 20.2561 62.8125 19.998 63.2063 19.998C63.6002 19.998 63.7835 20.2391 63.7835 20.6364Z" fill="white"/>
<path d="M65.1825 20.6319V20.6965C65.1947 20.8058 65.1712 20.9161 65.1155 21.011C65.0599 21.1059 64.9749 21.1801 64.8735 21.2227C64.9755 21.2655 65.0609 21.3403 65.1166 21.4359C65.1724 21.5314 65.1955 21.6425 65.1825 21.7524V21.9357C65.1825 22.3262 64.9991 22.5809 64.6053 22.5809C64.2114 22.5809 64.0281 22.3398 64.0281 21.9357V21.7592H64.2929V21.9527C64.2929 22.1836 64.388 22.3228 64.5917 22.3228C64.7954 22.3228 64.8905 22.187 64.8905 21.929V21.732C64.8905 21.4808 64.7852 21.3585 64.5713 21.3518H64.4185V21.0971H64.5849C64.775 21.0971 64.8905 20.9681 64.8905 20.7576V20.6421C64.8905 20.3807 64.7988 20.2449 64.5917 20.2449C64.3846 20.2449 64.2929 20.3875 64.2929 20.6184V20.7474H64.0281V20.6319C64.0281 20.2415 64.208 19.9902 64.5985 19.9902C64.9889 19.9902 65.1825 20.2381 65.1825 20.6319Z" fill="white"/>
<path d="M65.7256 20.8262V21.1657H65.4506V20.8262H65.7256ZM65.7256 22.2148V22.5714H65.4506V22.2148H65.7256Z" fill="white"/>
<path d="M66.313 21.0579C66.3493 20.9904 66.404 20.9345 66.4706 20.8967C66.5373 20.8588 66.6133 20.8406 66.6899 20.844C67.0294 20.844 67.1652 21.0851 67.1652 21.4517V21.9373C67.1652 22.3277 66.9785 22.5824 66.588 22.5824C66.1976 22.5824 66.0142 22.3277 66.0142 21.9373V21.7641H66.2824V21.9543C66.2824 22.1851 66.3775 22.3243 66.5812 22.3243C66.785 22.3243 66.88 22.1851 66.88 21.9543V21.4585C66.88 21.2277 66.785 21.0918 66.5812 21.0918C66.5443 21.09 66.5073 21.0957 66.4726 21.1084C66.4379 21.1212 66.4061 21.1409 66.3791 21.1663C66.3522 21.1916 66.3307 21.2222 66.3158 21.256C66.3009 21.2899 66.293 21.3265 66.2926 21.3635V21.4212H66.0278L66.0957 20.002H67.1143V20.2566H66.3605L66.313 21.0579Z" fill="white"/>
<path d="M68.5879 20.6286V20.6761H68.3196V20.6082C68.3196 20.3807 68.2246 20.2449 68.0175 20.2449C67.8103 20.2449 67.7051 20.3841 67.7051 20.6557V21.2295C67.736 21.1456 67.7928 21.0738 67.8673 21.0243C67.9417 20.9749 68.03 20.9504 68.1193 20.9545C68.4588 20.9545 68.5947 21.1922 68.5947 21.5623V21.9357C68.5947 22.3262 68.4011 22.5809 68.0107 22.5809C67.6202 22.5809 67.4233 22.3398 67.4233 21.9357V20.6455C67.4233 20.2415 67.6032 19.9902 68.0107 19.9902C68.4181 19.9902 68.5879 20.2381 68.5879 20.6286ZM67.7051 21.5826V21.9663C67.7051 22.1972 67.8002 22.3364 68.0107 22.3364C68.2212 22.3364 68.3128 22.1972 68.3128 21.9663V21.5962C68.3128 21.3687 68.2144 21.2295 68.0107 21.2295C67.8069 21.2295 67.7051 21.3551 67.7051 21.5962V21.5826Z" fill="white"/>
<path d="M96.4803 20.7422H95.7605V22.5451H96.4803V20.7422Z" fill="white"/>
<path d="M97.4479 20.377H96.7247V22.5432H97.4479V20.377Z" fill="white"/>
<path d="M98.4088 20.125H97.6856V22.5458H98.4088V20.125Z" fill="white"/>
<path d="M99.3663 19.6758H98.6465V22.5448H99.3663V19.6758Z" fill="white"/>
<path d="M108.299 22.4979H103.97V19.8496H108.299V22.4979ZM104.225 22.2569H108.072V20.0907H104.211L104.225 22.2569Z" fill="white"/>
<path d="M106.856 20.3496H104.571V21.9895H106.856V20.3496Z" fill="white"/>
<path d="M108.69 20.8613H108.147V21.4861H108.69V20.8613Z" fill="white"/>
<path d="M102.395 21.9362C102.366 21.9368 102.338 21.9285 102.313 21.9125C101.431 21.3896 100.85 21.8751 100.826 21.9125C100.796 21.9421 100.755 21.9587 100.713 21.9587C100.67 21.9587 100.629 21.9421 100.599 21.9125C100.584 21.8976 100.572 21.8799 100.564 21.8604C100.555 21.8408 100.551 21.8199 100.551 21.7987C100.551 21.7775 100.555 21.7566 100.564 21.7371C100.572 21.7175 100.584 21.6998 100.599 21.685C100.629 21.6578 101.376 21.0059 102.466 21.6646C102.484 21.6757 102.5 21.6904 102.513 21.7077C102.526 21.725 102.535 21.7446 102.54 21.7654C102.545 21.7862 102.546 21.8078 102.542 21.829C102.539 21.8501 102.532 21.8704 102.521 21.8887C102.504 21.9051 102.485 21.9178 102.463 21.926C102.441 21.9342 102.418 21.9377 102.395 21.9362Z" fill="white"/>
<path d="M102.707 21.3764C102.678 21.377 102.65 21.3687 102.626 21.3527C101.353 20.5955 100.494 21.3289 100.487 21.3527C100.472 21.3678 100.454 21.3797 100.435 21.3879C100.415 21.3961 100.394 21.4003 100.373 21.4003C100.352 21.4003 100.331 21.3961 100.311 21.3879C100.292 21.3797 100.274 21.3678 100.259 21.3527C100.244 21.3378 100.232 21.3201 100.224 21.3006C100.216 21.2811 100.212 21.2601 100.212 21.2389C100.212 21.2178 100.216 21.1968 100.224 21.1773C100.232 21.1577 100.244 21.14 100.259 21.1252C100.259 21.1252 101.302 20.2288 102.779 21.1048C102.797 21.116 102.813 21.1306 102.825 21.1479C102.838 21.1652 102.847 21.1848 102.852 21.2056C102.857 21.2264 102.858 21.248 102.855 21.2692C102.851 21.2903 102.844 21.3106 102.833 21.3289C102.817 21.3453 102.797 21.358 102.775 21.3662C102.754 21.3744 102.73 21.3779 102.707 21.3764Z" fill="white"/>
<path d="M103.003 20.7474C102.974 20.7458 102.946 20.7377 102.921 20.7236C101.308 19.7627 100.236 20.6659 100.205 20.7066C100.174 20.7365 100.133 20.7532 100.09 20.7532C100.046 20.7532 100.005 20.7365 99.9741 20.7066C99.9466 20.674 99.9329 20.632 99.9361 20.5894C99.9393 20.5469 99.959 20.5073 99.991 20.4792C99.991 20.4792 101.278 19.3791 103.101 20.4792C103.119 20.49 103.135 20.5043 103.148 20.5213C103.16 20.5383 103.169 20.5576 103.174 20.5781C103.18 20.5987 103.18 20.62 103.177 20.6409C103.174 20.6618 103.167 20.6818 103.155 20.6999C103.136 20.72 103.112 20.7349 103.085 20.7432C103.058 20.7515 103.03 20.7529 103.003 20.7474Z" fill="white"/>
<path d="M101.896 22.1926C101.896 22.2732 101.872 22.352 101.827 22.419C101.782 22.486 101.719 22.5382 101.644 22.569C101.57 22.5999 101.488 22.6079 101.409 22.5922C101.33 22.5765 101.257 22.5377 101.2 22.4807C101.143 22.4237 101.105 22.3511 101.089 22.2721C101.073 22.1931 101.081 22.1111 101.112 22.0367C101.143 21.9622 101.195 21.8986 101.262 21.8538C101.329 21.8091 101.408 21.7852 101.488 21.7852C101.542 21.7847 101.595 21.7949 101.645 21.8153C101.695 21.8356 101.74 21.8656 101.778 21.9035C101.815 21.9414 101.845 21.9865 101.866 22.0362C101.886 22.0858 101.896 22.139 101.896 22.1926Z" fill="white"/>
<path d="M107.084 71.0859H65.6373C64.2928 71.0859 63.2029 72.1759 63.2029 73.5204V97.3859C63.2029 98.7304 64.2928 99.8204 65.6373 99.8204H107.084C108.428 99.8204 109.518 98.7304 109.518 97.3859V73.5204C109.518 72.1759 108.428 71.0859 107.084 71.0859Z" fill="#FFBD59" stroke="#263238" stroke-width="0.840038" stroke-linecap="round" stroke-linejoin="round"/>
<path d="M71.6572 93.7363H66.7544V95.7633H71.6572V93.7363Z" fill="#263238"/>
<path d="M78.1659 93.7363H73.2631V95.7633H78.1659V93.7363Z" fill="#263238"/>
<path d="M84.6714 93.7363H79.7686V95.7633H84.6714V93.7363Z" fill="#263238"/>
<path d="M91.1802 93.7363H86.2774V95.7633H91.1802V93.7363Z" fill="#263238"/>
<path d="M97.6889 93.7363H92.7861V95.7633H97.6889V93.7363Z" fill="#263238"/>
<path d="M104.198 93.7363H99.2949V95.7633H104.198V93.7363Z" fill="#263238"/>
<path d="M76.2782 81.0586H67.8782C67.2576 81.0586 66.7544 81.5618 66.7544 82.1824V87.8798C66.7544 88.5004 67.2576 89.0036 67.8782 89.0036H76.2782C76.8989 89.0036 77.4021 88.5004 77.4021 87.8798V82.1824C77.4021 81.5618 76.8989 81.0586 76.2782 81.0586Z" fill="white" stroke="#263238" stroke-width="0.840038" stroke-linecap="round" stroke-linejoin="round"/>
<path d="M90.0801 74.4688H66.7544V75.6503H90.0801V74.4688Z" fill="#263238"/>
<path d="M96.4952 51.2393C97.9446 45.0056 94.0663 38.7772 87.8326 37.3277C81.599 35.8783 75.3705 39.7566 73.9211 45.9903C72.4716 52.224 76.35 58.4524 82.5836 59.9018C88.8173 61.3513 95.0457 57.473 96.4952 51.2393Z" fill="#263238"/>
<path d="M79.7793 46.2529H81.1689V42.084H82.5586L84.9349 46.2529H88.1172V42.084H89.5068V46.2529H90.8965V47.6426H89.5068V49.0322H90.8965V50.4219H89.5068V54.5908H88.1172L85.7339 50.4219H82.5586V54.5908H81.1689V50.4219H79.7793V49.0322H81.1689V47.6426H79.7793V46.2529ZM82.5586 46.2529H83.3437L82.5586 44.8841V46.2529ZM82.5586 47.6426V49.0322H84.9349L84.1428 47.6426H82.5586ZM88.1172 51.8115V50.4219H87.3181L88.1172 51.8115ZM85.727 47.6426L86.526 49.0322H88.1172V47.6426H85.727Z" fill="white"/>
<path d="M94.2969 45.6466C96.1102 45.6466 97.5801 44.1766 97.5801 42.3633C97.5801 40.55 96.1102 39.0801 94.2969 39.0801C92.4836 39.0801 91.0136 40.55 91.0136 42.3633C91.0136 44.1766 92.4836 45.6466 94.2969 45.6466Z" fill="#FFBD59" stroke="#263238" stroke-width="0.840038" stroke-linecap="round" stroke-linejoin="round"/>
<path d="M94.2866 43.7942C94.2206 43.7914 94.1559 43.7742 94.0972 43.7437C94.0386 43.7132 93.9873 43.6702 93.9471 43.6177L92.3275 41.5228C92.2541 41.4278 92.2215 41.3075 92.2368 41.1884C92.2521 41.0693 92.314 40.9612 92.409 40.8878C92.504 40.8144 92.6243 40.7818 92.7434 40.7971C92.8624 40.8124 92.9705 40.8743 93.0439 40.9693L94.324 42.6296L97.6819 38.759C97.7631 38.6799 97.871 38.6342 97.9843 38.631C98.0976 38.6278 98.2079 38.6674 98.2934 38.7417C98.3789 38.8161 98.4333 38.9199 98.4459 39.0326C98.4584 39.1452 98.4281 39.2584 98.361 39.3498L94.6431 43.638C94.5991 43.689 94.5443 43.7295 94.4826 43.7565C94.4209 43.7835 94.3539 43.7964 94.2866 43.7942Z" fill="#263238"/>
<defs>
<clipPath id="clip0_1388_38829">
<rect width="24" height="24" fill="white" transform="translate(38.9999 39.1172) rotate(-14.7676)"/>
</clipPath>
</defs>
</svg>
