<svg width="99" height="99" viewBox="0 0 99 99" fill="none" xmlns="http://www.w3.org/2000/svg">
<rect x="0.511719" y="0.562775" width="97.8581" height="97.8581" rx="48.9291" fill="black"/>
<path d="M43.0067 45.4437H47.5633C49.1738 45.4437 50.499 45.1684 51.5388 44.618C52.5989 44.0471 53.3838 43.2724 53.8935 42.2939C54.4235 41.2949 54.6886 40.143 54.6886 38.8382C54.6886 37.5539 54.4541 36.4428 53.9852 35.5049C53.5163 34.5468 52.8028 33.8128 51.8446 33.3031C50.9068 32.7731 49.7039 32.508 48.236 32.508C47.0536 32.508 45.9629 32.7425 44.9639 33.2114C43.9853 33.6803 43.2004 34.3531 42.6092 35.2297C42.0384 36.086 41.7529 37.1155 41.7529 38.3184H33.6491C33.6491 35.9127 34.2811 33.8026 35.5451 31.9882C36.8295 30.1533 38.5624 28.716 40.7438 27.6763C42.9252 26.6366 45.3615 26.1167 48.0526 26.1167C50.9883 26.1167 53.5571 26.606 55.7589 27.5846C57.9811 28.5427 59.7038 29.9597 60.927 31.8353C62.1706 33.7109 62.7924 36.035 62.7924 38.8077C62.7924 40.1328 62.4764 41.458 61.8444 42.7831C61.2328 44.0879 60.3256 45.2704 59.1228 46.3305C57.9403 47.3702 56.4826 48.2163 54.7497 48.8687C53.0372 49.5007 51.0699 49.8167 48.8477 49.8167H43.0067V45.4437ZM43.0067 51.6821V47.3702H48.8477C51.3553 47.3702 53.5265 47.6659 55.3613 48.2571C57.2166 48.8279 58.7456 49.6434 59.9484 50.7035C61.1513 51.7433 62.0381 52.9563 62.609 54.3426C63.2002 55.729 63.4958 57.2172 63.4958 58.8074C63.4958 60.8869 63.1084 62.7421 62.3337 64.3731C61.559 65.9837 60.4683 67.3496 59.0616 68.4709C57.6753 69.5922 56.0443 70.4485 54.1687 71.0397C52.2931 71.6105 50.2646 71.8959 48.0831 71.8959C46.1871 71.8959 44.3421 71.6411 42.548 71.1314C40.7744 70.6014 39.174 69.8165 37.7469 68.7767C36.3198 67.7166 35.1883 66.3914 34.3524 64.8012C33.5165 63.1906 33.0986 61.3252 33.0986 59.205H41.2025C41.2025 60.4282 41.4981 61.5189 42.0893 62.4771C42.7009 63.4353 43.5368 64.1896 44.5969 64.7401C45.6775 65.2701 46.8905 65.5352 48.236 65.5352C49.7243 65.5352 50.9985 65.2701 52.0586 64.7401C53.1391 64.1896 53.9648 63.4149 54.5357 62.4159C55.1065 61.3966 55.3919 60.1835 55.3919 58.7768C55.3919 57.1051 55.0759 55.7494 54.4439 54.7096C53.8119 53.6699 52.9047 52.9053 51.7222 52.4161C50.5602 51.9268 49.1738 51.6821 47.5633 51.6821H43.0067Z" fill="white"/>
</svg>
