<svg width="157" height="132" viewBox="0 0 157 132" fill="none" xmlns="http://www.w3.org/2000/svg">
<path d="M156.618 9.18446C156.992 8.17032 156.473 7.04569 155.458 6.67253L138.927 0.591533C137.913 0.218371 136.787 0.737987 136.413 1.75212C136.039 2.76626 136.558 3.89089 137.573 4.26405L152.267 9.66938L146.848 24.3595C146.473 25.3736 146.992 26.4982 148.007 26.8714C149.021 27.2445 150.147 26.7249 150.521 25.7108L156.618 9.18446ZM5.87041 130.02C6.20229 131.048 7.3055 131.612 8.33452 131.28L25.1033 125.862C26.1323 125.53 26.6975 124.427 26.3656 123.398C26.0337 122.37 24.9305 121.806 23.9015 122.139L8.9959 126.954L4.18863 112.061C3.85676 111.032 2.75354 110.468 1.72452 110.801C0.695505 111.133 0.130361 112.236 0.462232 113.264L5.87041 130.02ZM153.961 6.73259C135.274 15.3589 105.512 31.7614 76.8364 52.9858C48.1982 74.1822 20.4332 100.34 5.99122 128.527L9.476 130.309C23.5034 102.931 50.6853 77.2091 79.1651 56.13C107.607 35.0789 137.134 18.8095 155.601 10.285L153.961 6.73259Z" fill="#FF9E0B"/>
</svg>
