<svg width="178" height="149" viewBox="0 0 178 149" fill="none" xmlns="http://www.w3.org/2000/svg">
<path d="M8.11245 0.611792C7.07977 0.292695 5.98375 0.871201 5.66442 1.90392L0.460675 18.7331C0.141347 19.7658 0.719636 20.8617 1.75232 21.1808C2.785 21.4998 3.88102 20.9213 4.20035 19.8886L8.8259 4.92938L23.7846 9.55158C24.8173 9.87068 25.9133 9.29218 26.2326 8.25945C26.552 7.22674 25.9737 6.13086 24.941 5.81178L8.11245 0.611792ZM176.969 139.218C177.884 138.642 178.159 137.434 177.584 136.519L168.205 121.612C167.629 120.697 166.421 120.422 165.506 120.998C164.591 121.573 164.316 122.782 164.891 123.696L173.228 136.948L159.975 145.287C159.06 145.863 158.785 147.071 159.36 147.986C159.936 148.901 161.144 149.176 162.059 148.6L176.969 139.218ZM5.80324 3.39538C16.4193 23.513 41.15 53.4717 71.9583 80.3779C102.763 107.281 139.921 131.377 175.493 139.47L176.362 135.653C141.712 127.77 105.138 104.158 74.5336 77.4295C43.9332 50.7049 19.5783 21.1112 9.26528 1.56803L5.80324 3.39538Z" fill="#FF9E0B"/>
</svg>
