<svg width="37" height="27" viewBox="0 0 37 27" fill="none" xmlns="http://www.w3.org/2000/svg">
<rect width="37" height="27" rx="4" fill="#EBF0F0"/>
<path d="M15.5311 17.269L14.3436 16.0809L13.5058 16.9181L15.5311 18.9434L19.0936 15.3809L18.2564 14.5437L15.5311 17.269ZM25.6249 21.3184H23.2499V20.1309H25.6249V13.0059H23.2499V8.25586C23.2491 7.62621 22.9986 7.02258 22.5534 6.57735C22.1081 6.13212 21.5045 5.88164 20.8749 5.88086V4.69336C21.8194 4.69446 22.7249 5.07015 23.3927 5.73801C24.0606 6.40587 24.4363 7.31136 24.4374 8.25586V11.8184H25.6249C25.9397 11.8187 26.2416 11.9439 26.4642 12.1665C26.6868 12.3891 26.812 12.691 26.8124 13.0059V20.1309C26.812 20.4457 26.6868 20.7476 26.4642 20.9702C26.2416 21.1928 25.9397 21.318 25.6249 21.3184Z" fill="#111111"/>
<path d="M14.3436 16.0814L15.5311 17.2695L18.2564 14.5442L19.0936 15.3814L15.5311 18.9439L13.5058 16.9186L14.3436 16.0814Z" fill="#111111"/>
<path d="M20.875 11.8184H19.6875V8.25586C19.6875 7.31103 19.3122 6.40489 18.6441 5.73679C17.976 5.06869 17.0698 4.69336 16.125 4.69336C15.1802 4.69336 14.274 5.06869 13.6059 5.73679C12.9378 6.40489 12.5625 7.31103 12.5625 8.25586V11.8184H11.375C11.0601 11.8184 10.758 11.9435 10.5353 12.1662C10.3126 12.3889 10.1875 12.6909 10.1875 13.0059V20.1309C10.1875 20.4458 10.3126 20.7478 10.5353 20.9705C10.758 21.1932 11.0601 21.3184 11.375 21.3184H20.875C21.1899 21.3184 21.492 21.1932 21.7147 20.9705C21.9374 20.7478 22.0625 20.4458 22.0625 20.1309V13.0059C22.0625 12.6909 21.9374 12.3889 21.7147 12.1662C21.492 11.9435 21.1899 11.8184 20.875 11.8184ZM13.75 8.25586C13.75 7.62597 14.0002 7.02188 14.4456 6.57648C14.891 6.13108 15.4951 5.88086 16.125 5.88086C16.7549 5.88086 17.359 6.13108 17.8044 6.57648C18.2498 7.02188 18.5 7.62597 18.5 8.25586V11.8184H13.75V8.25586ZM20.875 20.1309H11.375V13.0059H20.875V20.1309Z" fill="#111111"/>
</svg>
