<svg width="10" height="9" viewBox="0 0 10 9" fill="none" xmlns="http://www.w3.org/2000/svg">
<path d="M9.125 0H3.125C3.02554 0 2.93016 0.0395089 2.85984 0.109835C2.78951 0.180161 2.75 0.275544 2.75 0.375V2.25H0.875C0.775544 2.25 0.680161 2.28951 0.609835 2.35984C0.539509 2.43016 0.5 2.52554 0.5 2.625V8.625C0.5 8.72446 0.539509 8.81984 0.609835 8.89017C0.680161 8.96049 0.775544 9 0.875 9H6.875C6.97446 9 7.06984 8.96049 7.14017 8.89017C7.21049 8.81984 7.25 8.72446 7.25 8.625V6.75H9.125C9.22446 6.75 9.31984 6.71049 9.39017 6.64017C9.46049 6.56984 9.5 6.47446 9.5 6.375V0.375C9.5 0.275544 9.46049 0.180161 9.39017 0.109835C9.31984 0.0395089 9.22446 0 9.125 0ZM6.5 8.25H1.25V3H6.5V8.25ZM8.75 6H7.25V2.625C7.25 2.52554 7.21049 2.43016 7.14017 2.35984C7.06984 2.28951 6.97446 2.25 6.875 2.25H3.5V0.75H8.75V6Z" fill="black"/>
</svg>
