<svg width="216" height="216" viewBox="0 0 216 216" fill="none" xmlns="http://www.w3.org/2000/svg">
<path fill-rule="evenodd" clip-rule="evenodd" d="M186.556 77.457L194.38 83.6472C197.373 86.035 199.119 89.6534 199.125 93.4824V186.555C199.125 193.497 193.497 199.125 186.556 199.125H29.4439C22.5023 199.125 16.875 193.497 16.875 186.555V93.4824C16.881 89.6534 18.6267 86.035 21.6198 83.6472L29.4439 77.457H186.556Z" fill="#F29C1F"/>
<path fill-rule="evenodd" clip-rule="evenodd" d="M29.444 166.885V23.1595C29.4543 19.693 32.2619 16.8854 35.7284 16.875H180.271C183.738 16.8854 186.545 19.693 186.556 23.1595V163.617L29.444 166.885Z" fill="#ECEFF1"/>
<path d="M108 117.427C132.295 117.427 151.991 97.7313 151.991 73.4355C151.991 49.1397 132.295 29.4443 108 29.4443C83.7038 29.4443 64.0085 49.1397 64.0085 73.4355C64.0085 97.7313 83.7038 117.427 108 117.427Z" fill="#158025"/>
<path fill-rule="evenodd" clip-rule="evenodd" d="M98.5732 98.5734C96.906 98.5768 95.3062 97.9136 94.13 96.7323L81.5611 84.1634C79.1796 81.6976 79.2134 77.7775 81.6379 75.3534C84.062 72.9293 87.9816 72.8956 90.4475 75.2771L98.5732 83.3998L125.553 56.4235C127.13 54.79 129.467 54.1348 131.664 54.7098C133.861 55.2848 135.577 57.001 136.153 59.1981C136.728 61.3953 136.072 63.732 134.438 65.3098L103.016 96.7323C101.84 97.9136 100.24 98.5768 98.5732 98.5734Z" fill="#ECF0F1"/>
<path fill-rule="evenodd" clip-rule="evenodd" d="M199.125 95.1484L199.125 186.556C199.14 190.123 197.617 193.524 194.945 195.888L135.683 149.823L199.125 95.1484Z" fill="#FFB52D"/>
<path fill-rule="evenodd" clip-rule="evenodd" d="M194.945 195.889C192.646 197.969 189.656 199.123 186.556 199.125H29.444C26.3431 199.123 23.3535 197.969 21.0542 195.889L80.3166 149.824L104.104 131.347C106.392 129.556 109.607 129.556 111.896 131.347L135.683 149.824L194.945 195.889Z" fill="#FFC107"/>
<path fill-rule="evenodd" clip-rule="evenodd" d="M80.317 149.823L21.0543 195.888C18.3829 193.524 16.8601 190.123 16.8751 186.556L16.875 95.1484L80.317 149.823Z" fill="#FFB52D"/>
</svg>
