<svg width="80" height="81" viewBox="0 0 80 81" fill="none" xmlns="http://www.w3.org/2000/svg">
<circle cx="39.6963" cy="40.1963" r="39.6963" fill="#FFF7EB"/>
<g clip-path="url(#clip0_3387_76765)">
<path d="M22.8496 57.6504C21.6705 57.6504 20.6608 57.2302 19.8204 56.3898C18.9801 55.5495 18.5606 54.5405 18.562 53.3628V27.6372C18.562 26.4581 18.9822 25.4484 19.8226 24.608C20.6629 23.7677 21.672 23.3482 22.8496 23.3496H57.1504C58.3295 23.3496 59.3392 23.7698 60.1796 24.6102C61.02 25.4505 61.4394 26.4596 61.438 27.6372V53.3628C61.438 54.5419 61.0178 55.5516 60.1774 56.392C59.3371 57.2324 58.3281 57.6518 57.1504 57.6504H22.8496ZM40 42.6438L57.1504 31.9248V27.6372L40 38.3562L22.8496 27.6372V31.9248L40 42.6438Z" fill="#158025"/>
<circle cx="58.5248" cy="54.1317" r="6.41214" fill="#FFBD59" stroke="#FFF7EB" stroke-width="1.08617"/>
<path d="M59.6204 50.8601V58.1328H58.5196V51.9609H58.477L56.7369 53.0973V52.0462L58.5515 50.8601H59.6204Z" fill="black"/>
</g>
<defs>
<clipPath id="clip0_3387_76765">
<rect width="51.4512" height="51.4512" fill="white" transform="translate(14.2744 14.7744)"/>
</clipPath>
</defs>
</svg>
