<svg width="60" height="60" viewBox="0 0 60 60" fill="none" xmlns="http://www.w3.org/2000/svg">
<path d="M32.9994 0V6C46.1694 7.62 55.4994 19.59 53.8794 32.76C53.2172 38.067 50.8044 43.0016 47.0227 46.7833C43.241 50.565 38.3064 52.9778 32.9994 53.64V59.64C49.4994 57.84 61.3494 43.02 59.5494 26.55C57.9894 12.57 46.9794 1.5 32.9994 0ZM26.9994 0C21.1194 0.54 15.5694 2.85 11.0094 6.6L15.2994 11.22C18.6594 8.52 22.7094 6.78 26.9994 6.18V0.18M6.77942 11.01C3.01645 15.5549 0.706512 21.1259 0.149414 27H6.14942C6.71941 22.74 8.39941 18.69 11.0694 15.3L6.77942 11.01ZM0.179414 33C0.779414 38.88 3.08941 44.43 6.80941 48.99L11.0694 44.7C8.4202 41.3088 6.73128 37.2678 6.17941 33H0.179414ZM15.1794 49.11L11.0094 53.22C15.5538 57.0081 21.1172 59.3671 26.9994 60V54C22.7316 53.4481 18.6906 51.7592 15.2994 49.11H15.1794ZM32.9994 33V15H26.9994V33H32.9994ZM32.9994 45V39H26.9994V45H32.9994Z" fill="#087D18"/>
</svg>
