<svg width="30" height="30" viewBox="0 0 30 30" fill="none" xmlns="http://www.w3.org/2000/svg">
<path d="M13.0173 21.5154L23.0048 11.5279L21.0215 9.54453L13.0173 17.5487L8.97982 13.5112L6.99648 15.4945L13.0173 21.5154ZM15.0007 29.1654C13.0409 29.1654 11.1993 28.7933 9.47565 28.049C7.75204 27.3048 6.25273 26.2957 4.97773 25.0216C3.70273 23.7466 2.6936 22.2473 1.95032 20.5237C1.20704 18.8001 0.834929 16.9584 0.833984 14.9987C0.833984 13.039 1.2061 11.1973 1.95032 9.4737C2.69454 7.75009 3.70368 6.25078 4.97773 4.97578C6.25273 3.70078 7.75204 2.69164 9.47565 1.94836C11.1993 1.20509 13.0409 0.832976 15.0007 0.832031C16.9604 0.832031 18.802 1.20414 20.5257 1.94836C22.2493 2.69259 23.7486 3.70173 25.0236 4.97578C26.2986 6.25078 27.3082 7.75009 28.0524 9.4737C28.7966 11.1973 29.1683 13.039 29.1673 14.9987C29.1673 16.9584 28.7952 18.8001 28.051 20.5237C27.3068 22.2473 26.2976 23.7466 25.0236 25.0216C23.7486 26.2966 22.2493 27.3062 20.5257 28.0504C18.802 28.7947 16.9604 29.1663 15.0007 29.1654Z" fill="#589160"/>
</svg>
