<svg width="62" height="62" viewBox="0 0 62 62" fill="none" xmlns="http://www.w3.org/2000/svg">
<path d="M31.0002 0.166016C14.271 0.166016 0.583496 14.041 0.583496 30.9994C0.583496 47.9577 14.271 61.8327 31.0002 61.8327C47.7293 61.8327 61.4168 47.9577 61.4168 30.9994C61.4168 14.041 47.7293 0.166016 31.0002 0.166016ZM31.0002 55.666C17.5864 55.666 6.66683 44.5969 6.66683 30.9994C6.66683 17.4018 17.5864 6.33268 31.0002 6.33268C44.4139 6.33268 55.3335 17.4018 55.3335 30.9994C55.3335 44.5969 44.4139 55.666 31.0002 55.666ZM44.9614 17.371L24.9168 37.6902L17.0389 29.7352L12.7502 34.0827L24.9168 46.416L49.2502 21.7493L44.9614 17.371Z" fill="#087D18"/>
</svg>
