<svg width="98" height="99" viewBox="0 0 98 99" fill="none" xmlns="http://www.w3.org/2000/svg">
<rect x="0.0708008" y="0.541367" width="97.8581" height="97.8581" rx="48.9291" fill="black"/>
<path d="M63.8806 64.9021V71.2629H33.728V65.8195L48.1927 50.1928C49.7013 48.4803 50.894 46.9921 51.7706 45.728C52.6473 44.464 53.2691 43.3224 53.636 42.303C54.0234 41.2633 54.2171 40.2745 54.2171 39.3367C54.2171 37.9708 53.9724 36.7781 53.4831 35.7588C52.9938 34.719 52.2803 33.9137 51.3425 33.3429C50.4251 32.772 49.2936 32.4866 47.948 32.4866C46.4598 32.4866 45.1856 32.8332 44.1254 33.5264C43.0857 34.1991 42.2906 35.1369 41.7402 36.3398C41.2101 37.5426 40.9451 38.9188 40.9451 40.4682H32.8412C32.8412 37.8382 33.4528 35.4428 34.676 33.2817C35.8992 31.1003 37.6525 29.3572 39.9359 28.0524C42.2192 26.7476 44.9307 26.0953 48.0704 26.0953C51.1284 26.0953 53.7176 26.6049 55.8378 27.6243C57.9581 28.6233 59.5687 30.0504 60.6696 31.9056C61.7705 33.7608 62.3209 35.9728 62.3209 38.5416C62.3209 39.9687 62.0865 41.3754 61.6176 42.7617C61.1487 44.148 60.4861 45.5242 59.6298 46.8901C58.794 48.2357 57.795 49.6016 56.6329 50.9879C55.4709 52.3742 54.1763 53.7912 52.7492 55.2386L44.0643 64.9021H63.8806Z" fill="white"/>
</svg>
