<svg width="87" height="118" viewBox="0 0 87 118" fill="none" xmlns="http://www.w3.org/2000/svg">
<path d="M86.9557 3.07468C86.997 1.99456 86.1548 1.08551 85.0747 1.04426L67.473 0.372109C66.3929 0.330862 65.4839 1.17304 65.4426 2.25316C65.4014 3.33329 66.2436 4.24234 67.3237 4.28358L82.9696 4.88105L82.3721 20.527C82.3309 21.6071 83.173 22.5161 84.2532 22.5574C85.3333 22.5986 86.2423 21.7564 86.2836 20.6763L86.9557 3.07468ZM11.4183 117.153C12.0549 118.026 13.2791 118.218 14.1527 117.582L28.3882 107.208C29.2617 106.571 29.4538 105.347 28.8172 104.473C28.1806 103.6 26.9564 103.408 26.0828 104.044L13.4291 113.266L4.2077 100.612C3.5711 99.7383 2.34687 99.5462 1.47331 100.183C0.599749 100.819 0.407656 102.044 1.04426 102.917L11.4183 117.153ZM83.6699 1.56428C72.9976 11.4515 56.6067 28.9668 42.0179 49.4674C27.4568 69.929 14.5374 93.5762 11.0665 115.697L14.9335 116.303C18.2626 95.0867 30.7598 72.0387 45.2071 51.7369C59.6266 31.4742 75.8358 14.1581 86.3301 4.43572L83.6699 1.56428Z" fill="#FF9E0B"/>
</svg>
