<svg width="13" height="18" viewBox="0 0 13 18" fill="none" xmlns="http://www.w3.org/2000/svg">
<path d="M10.875 7.81836H9.6875V4.25586C9.6875 3.31103 9.31217 2.40489 8.64407 1.73679C7.97597 1.06869 7.06983 0.693359 6.125 0.693359C5.18017 0.693359 4.27403 1.06869 3.60593 1.73679C2.93783 2.40489 2.5625 3.31103 2.5625 4.25586V7.81836H1.375C1.06006 7.81836 0.75801 7.94347 0.535311 8.16617C0.312611 8.38887 0.1875 8.69091 0.1875 9.00586V16.1309C0.1875 16.4458 0.312611 16.7478 0.535311 16.9705C0.75801 17.1932 1.06006 17.3184 1.375 17.3184H10.875C11.1899 17.3184 11.492 17.1932 11.7147 16.9705C11.9374 16.7478 12.0625 16.4458 12.0625 16.1309V9.00586C12.0625 8.69091 11.9374 8.38887 11.7147 8.16617C11.492 7.94347 11.1899 7.81836 10.875 7.81836ZM3.75 4.25586C3.75 3.62597 4.00022 3.02188 4.44562 2.57648C4.89102 2.13108 5.49511 1.88086 6.125 1.88086C6.75489 1.88086 7.35898 2.13108 7.80438 2.57648C8.24978 3.02188 8.5 3.62597 8.5 4.25586V7.81836H3.75V4.25586ZM10.875 16.1309H1.375V9.00586H10.875V16.1309Z" fill="#111111"/>
</svg>
